<svg xmlns="http://www.w3.org/2000/svg" viewBox="0 0 1000 260"><path fill="#8DC73F" d="M220.3 190.4h-32.7v-74.5c0-1.8-.2-4.1-.7-6.8-.5-2.7-1.6-5.4-3.2-8-1.7-2.6-4-4.9-7.2-6.7-3.1-1.8-7.4-2.7-12.9-2.7-7.3 0-13.2 2.2-17.8 6.7-4.6 4.5-6.9 10.3-6.9 17.6v74.5h-32.7V116c0-1.8-.2-4.1-.7-6.8-.5-2.7-1.5-5.4-3.1-8-1.6-2.6-3.9-4.9-7.1-6.7-3.1-1.8-7.4-2.7-12.9-2.7-7.4 0-13.4 2.2-17.9 6.7-4.5 4.5-6.8 10.3-6.8 17.6v74.5H25v-73.8c0-8.1 1.4-15.6 4.1-22.5 2.7-6.9 6.6-13 11.5-18.1 5-5.1 11-9.1 18.1-12 7.1-2.9 15-4.3 23.8-4.3 8.7 0 16.5 1.6 23.4 4.8 6.8 3.2 12.6 7.6 17.2 13.2 4.8-5.6 10.6-10 17.6-13.2 6.9-3.2 14.6-4.8 23-4.8 8.9 0 16.9 1.4 23.9 4.2 7 2.8 13 6.7 17.8 11.8 4.9 5 8.6 11 11.1 17.9 2.6 6.9 3.8 14.6 3.8 23v73.6z"/><path fill-rule="evenodd" clip-rule="evenodd" fill="#8DC73F" d="M298.1 163.4c4.3 0 8.4-.9 12.2-2.6 3.8-1.7 7.2-4.2 10.1-7.4 2.9-3.2 5.2-7.1 6.8-11.5 1.7-4.5 2.5-9.4 2.5-14.9 0-5.4-.8-10.5-2.5-15.1s-3.9-8.6-6.8-11.9c-2.9-3.3-6.3-5.9-10.1-7.7-3.8-1.8-7.9-2.7-12.2-2.7-4.3 0-8.4.9-12.3 2.7-3.9 1.8-7.2 4.4-10.1 7.7-2.8 3.3-5.1 7.3-6.7 11.9-1.7 4.6-2.5 9.7-2.5 15.1s.8 10.4 2.5 14.9 3.9 8.3 6.7 11.5c2.8 3.2 6.2 5.7 10.1 7.4 3.9 1.8 8 2.6 12.3 2.6zM298 59.7c8.9 0 17.2 1.7 25 5.1 7.8 3.4 14.6 8.1 20.4 14.1 5.9 6 10.5 13.1 13.9 21.3 3.4 8.2 5.1 17 5.1 26.6 0 9.6-1.7 18.4-5.1 26.5-3.4 8.1-8 15.1-13.9 21s-12.7 10.6-20.4 14c-7.8 3.4-16.1 5.1-25 5.1-8.9 0-17.2-1.7-25-5.1-7.8-3.4-14.5-8-20.3-14-5.8-5.9-10.4-13-13.7-21-3.4-8.1-5.1-16.9-5.1-26.5 0-9.6 1.7-18.4 5.1-26.6 3.4-8.2 8-15.3 13.7-21.3 5.8-6 12.5-10.7 20.3-14.1 7.7-3.4 16.1-5.1 25-5.1zM476.8 127c0-5.3-.9-10.2-2.6-14.6-1.7-4.5-4.1-8.3-7.1-11.6-3-3.3-6.5-5.9-10.4-7.7-4-1.8-8.2-2.7-12.7-2.7s-8.7.9-12.7 2.8-7.5 4.5-10.4 7.8c-3 3.3-5.3 7.2-7.1 11.6-1.7 4.5-2.6 9.2-2.6 14.4 0 4.9.9 9.6 2.6 14 1.7 4.4 4.1 8.2 7.1 11.4 3 3.2 6.5 5.8 10.4 7.7 4 1.9 8.2 2.8 12.7 2.8s8.7-.9 12.7-2.7c4-1.8 7.5-4.3 10.4-7.6 3-3.2 5.3-7 7.1-11.4 1.7-4.3 2.6-9 2.6-14.2zm32.7-.3c0 9.3-1.6 17.9-4.8 26-3.2 8.1-7.7 15.2-13.5 21.2s-12.7 10.8-20.7 14.3-16.8 5.2-26.4 5.2c-9.7 0-18.6-1.7-26.6-5.2s-14.9-8.2-20.7-14.2c-5.8-6-10.3-13.1-13.5-21.2-3.2-8.1-4.8-16.7-4.8-26V6.2h32.7l.2 68.7c4.8-5.2 10.3-8.9 16.6-11.4 6.3-2.4 13.1-3.6 20.5-3.6 8.4 0 16.3 1.7 23.8 5.2 7.4 3.5 13.9 8.3 19.3 14.4s9.8 13.2 13 21.3 4.9 16.8 4.9 25.9z"/><path fill="#949CA1" d="M561.3 190.4h-32.7V62.9h32.7v127.5m103.3 0h-35.1L581.2 62.9h34.2l31.7 95.1L679 62.9h33.7l-48.1 127.5m100.4 0h-32.7V62.9H765v127.5"/><path fill="#8DC73F" d="M844.5 190.2c-9.4 1-17.7.4-24.8-1.7-7.1-2.1-13-5.6-17.8-10.4-4.8-4.8-8.4-10.7-10.9-17.7s-3.7-14.9-3.7-23.6V30.5H820v32.4h23v29h-23V137c0 8.9 2 15.2 6.1 18.8 4 3.6 10.2 5.2 18.4 4.7v29.7zm130.5 5.4c0 8.6-1.4 16.4-4.1 23.4-2.7 7-6.6 13-11.5 18.1-5 5-10.9 8.9-17.8 11.6-6.9 2.7-14.7 4.1-23.3 4.1-6.9 0-13.5-1.1-19.8-3.2-6.3-2.1-11.8-5.2-16.7-9.2-4.9-4-9-8.7-12.3-14.1-3.3-5.4-5.5-11.5-6.7-18.1h33.9c1 4.8 3.4 8.3 7.3 10.6 3.9 2.3 8.6 3.5 14.2 3.5 4.5 0 8.2-.7 11.3-2.1 3.1-1.4 5.5-3.3 7.4-5.7 1.9-2.4 3.3-5 4.1-7.9.8-2.9 1.2-5.8 1.2-8.8V183c-3.8 3.3-8.2 5.9-13.1 7.7-5 1.8-10.3 2.7-16.1 2.7-7.8 0-14.9-1.4-21.3-4.1-6.4-2.7-11.9-6.5-16.5-11.4-4.5-4.9-8-10.7-10.5-17.6-2.5-6.8-3.7-14.5-3.7-22.9V62.9h32.7v74.5c0 1.8.2 4.1.7 6.9.5 2.8 1.6 5.6 3.2 8.3 1.7 2.7 4 5 7.2 6.9 3.1 1.9 7.3 2.8 12.6 2.8 7.4 0 13.4-2.4 17.9-7.1 4.5-4.7 6.8-10.7 6.8-17.9V62.9H975v132.7z"/><path fill="#949CA1" d="M573.5 25.7c0-8.9 7.2-16.1 16.1-16.1 8.9 0 16.1 7.2 16.1 16.1 0 8.9-7.2 16.1-16.1 16.1-8.9 0-16.1-7.2-16.1-16.1zm-44.8 0c0-8.9 7.2-16.1 16.1-16.1 8.9 0 16.1 7.2 16.1 16.1 0 8.9-7.2 16.1-16.1 16.1-8.9 0-16.1-7.2-16.1-16.1zm157.1 0c0-8.9 7.2-16.1 16.1-16.1 8.9 0 16.1 7.2 16.1 16.1 0 8.9-7.2 16.1-16.1 16.1-8.9 0-16.1-7.2-16.1-16.1zm47 0c0-8.9 7.2-16.1 16.1-16.1 8.9 0 16.1 7.2 16.1 16.1 0 8.9-7.2 16.1-16.1 16.1-8.9 0-16.1-7.2-16.1-16.1z"/><path fill-rule="evenodd" clip-rule="evenodd" fill="#949CA1" d="M76.1 233.6c0-4.4-1.3-7.9-3.7-10.5-2.4-2.6-5.9-4-10.3-4-2.1 0-4 .4-5.7 1.3-1.7.8-3.1 2-4.3 3.4-1.2-1.5-2.6-2.6-4.3-3.5-1.7-.8-3.6-1.2-5.6-1.2-1.8 0-3.4.4-4.8 1.1-1.4.7-2.7 1.7-3.7 3V220h-8.2v33H34v-19.3c0-1.9.6-3.5 1.8-4.7 1.2-1.2 2.7-1.8 4.6-1.9 1.8 0 3.2.5 4.1 1.3.9.8 1.5 1.7 1.7 2.7.3 1 .4 1.9.4 2.6V253h8.5v-19.3c0-1.9.6-3.5 1.8-4.7 1.2-1.2 2.7-1.8 4.6-1.9 1.8 0 3.2.5 4.1 1.3.9.8 1.5 1.7 1.7 2.7.3 1 .4 1.9.4 2.6V253h8.5v-19.4h-.1zm21-14.5c-3.1 0-5.9.8-8.4 2.3-2.5 1.5-4.5 3.6-6 6.2s-2.2 5.6-2.3 8.9c0 3.3.8 6.3 2.3 8.9 1.5 2.6 3.5 4.6 6 6.1s5.3 2.3 8.4 2.3c3.1 0 5.9-.8 8.4-2.3 2.5-1.5 4.5-3.5 6-6.1 1.5-2.6 2.3-5.5 2.3-8.9 0-3.3-.8-6.3-2.3-8.9-1.5-2.6-3.5-4.7-6-6.2s-5.3-2.3-8.4-2.3zm0 26.9c-2.3 0-4.2-.9-5.8-2.6-1.5-1.7-2.3-4-2.4-6.8.1-2.9.9-5.2 2.4-7 1.5-1.8 3.5-2.7 5.8-2.7s4.2.9 5.8 2.7c1.5 1.8 2.3 4.1 2.4 7-.1 2.8-.9 5.1-2.4 6.8-1.6 1.7-3.5 2.5-5.8 2.6zm39.8-26.7c-2-.3-4-.2-5.8.5-1.9.6-3.5 1.8-4.9 3.5V220h-8.1v33h8.5v-16.3c0-1.3.1-2.6.4-3.9.3-1.3.9-2.4 1.7-3.3 1-1 2.1-1.7 3.5-1.9 1.4-.3 2.9-.3 4.6-.1v-8.2h.1zm34.7 20.4c.4-4.4-.2-8.1-1.6-11.2-1.4-3.1-3.5-5.4-6.1-7-2.6-1.6-5.6-2.4-8.9-2.5-3.1 0-6 .8-8.5 2.4-2.5 1.6-4.6 3.6-6.1 6.3-1.5 2.6-2.3 5.5-2.3 8.8 0 3.2.8 6.1 2.3 8.7 1.5 2.6 3.5 4.7 6.1 6.2 2.5 1.5 5.4 2.3 8.5 2.4 4.1-.1 7.6-1.1 10.4-3.1 2.8-2 4.6-4.8 5.6-8.2h-9.1c-.7 1.3-1.7 2.3-3 2.9-1.2.6-2.6.9-4 .9-2 0-3.8-.6-5.2-1.8-1.5-1.2-2.5-2.8-3.1-4.8h25zm-24.8-6.9c.6-1.9 1.7-3.5 3.1-4.6 1.4-1.1 3.1-1.7 5.1-1.7 2.1 0 3.8.6 5.3 1.7s2.5 2.6 3 4.6h-16.5z"/><path fill="#949CA1" d="M226 241.8h-9.1c-.6 1.2-1.5 2.2-2.7 3-1.2.8-2.6 1.2-4.2 1.3-2.4-.1-4.4-1-6-2.8-1.6-1.8-2.4-4-2.5-6.7.1-2.7.9-5 2.5-6.8 1.6-1.8 3.6-2.8 6-2.9 1.6 0 2.9.4 4.2 1.2 1.2.8 2.1 1.8 2.7 2.9h9.1c-1-3.8-2.9-6.7-5.7-8.8-2.8-2.1-6.2-3.1-10.2-3.2-3.3 0-6.3.8-8.9 2.4-2.6 1.6-4.6 3.6-6 6.3-1.5 2.6-2.2 5.5-2.2 8.8 0 3.2.8 6.1 2.2 8.7 1.5 2.6 3.5 4.7 6 6.2 2.6 1.5 5.5 2.3 8.9 2.4 4.1 0 7.5-1.1 10.3-3.2 2.7-2.1 4.6-5 5.6-8.8z"/><path fill-rule="evenodd" clip-rule="evenodd" fill="#949CA1" d="M259 219.9h-8.5v19.3c0 1.9-.6 3.4-1.8 4.6-1.2 1.2-2.7 1.8-4.6 1.9-1.8 0-3.2-.5-4.1-1.3-.9-.8-1.5-1.7-1.7-2.7-.3-1-.4-1.8-.4-2.5v-19.3h-8.5v19.3c.1 4.4 1.2 7.9 3.6 10.5 2.3 2.6 5.5 3.9 9.5 4 1.7 0 3.3-.3 4.7-1 1.4-.7 2.6-1.6 3.7-2.8v3h8.1v-33z"/><path fill="#949CA1" d="M293.3 242.6c-.1-3.5-1.4-5.9-4-7.4-2.6-1.4-6-2.4-10.1-3-2.1-.3-3.7-.7-4.8-1.1-1.1-.4-1.7-1-1.7-1.9 0-.6.4-1.2 1.3-1.8.9-.5 2.3-.8 4.2-.9 1.6 0 2.8.3 3.8.8.9.5 1.5 1.2 1.8 2h8.8c-.6-3.2-2.2-5.7-4.7-7.5-2.6-1.8-5.8-2.8-9.6-2.8-3.2 0-5.8.6-7.9 1.6-2.1 1-3.7 2.3-4.7 3.9s-1.5 3.3-1.5 5.1c.1 2.4.8 4.3 2.3 5.6 1.5 1.3 3.2 2.3 5.3 2.9 2.1.6 4.2 1.1 6.2 1.3 2.8.4 4.7.9 5.6 1.4.9.5 1.4 1.2 1.3 2.1 0 1-.6 1.7-1.7 2.2-1.1.5-2.5.8-4.3.8-1.3 0-2.7-.3-4-.9-1.4-.6-2.4-1.6-3-3h-8.6c.6 3.6 2.3 6.4 5.1 8.5 2.8 2 6.3 3.1 10.6 3.1 4.3-.1 7.8-1.1 10.4-3.1 2.5-1.9 3.8-4.6 3.9-7.9zm20.6 2.6c-2.1.1-3.7-.3-4.8-1.2-1.1-1-1.6-2.6-1.6-4.9v-11.7h6v-7.5h-6v-8.4H299v8.4h-4v7.5h4V239c0 4.6 1.3 8.2 3.8 10.7s6.2 3.6 11.1 3.2v-7.7z"/><path fill-rule="evenodd" clip-rule="evenodd" fill="#949CA1" d="M332.9 219.1c-3.1 0-5.9.8-8.4 2.3-2.5 1.5-4.5 3.6-6 6.2s-2.2 5.6-2.3 8.9c0 3.3.8 6.3 2.3 8.9 1.5 2.6 3.5 4.6 6 6.1s5.3 2.3 8.4 2.3c3.1 0 5.9-.8 8.4-2.3 2.5-1.5 4.5-3.5 6-6.1 1.5-2.6 2.3-5.5 2.3-8.9 0-3.3-.8-6.3-2.3-8.9-1.5-2.6-3.5-4.7-6-6.2s-5.3-2.3-8.4-2.3zm0 26.9c-2.3 0-4.2-.9-5.8-2.6-1.5-1.7-2.3-4-2.4-6.8.1-2.9.9-5.2 2.4-7 1.5-1.8 3.5-2.7 5.8-2.7s4.2.9 5.8 2.7c1.5 1.8 2.3 4.1 2.4 7-.1 2.8-.9 5.1-2.4 6.8-1.6 1.7-3.5 2.5-5.8 2.6zm71.8-12.4c0-4.4-1.3-7.9-3.7-10.5-2.4-2.6-5.9-4-10.3-4-2.1 0-4 .4-5.7 1.3-1.7.8-3.1 2-4.3 3.4-1.2-1.5-2.6-2.6-4.3-3.5-1.7-.8-3.6-1.2-5.6-1.2-1.8 0-3.4.4-4.8 1.1-1.4.7-2.7 1.7-3.7 3V220H354v33h8.5v-19.3c0-1.9.6-3.5 1.8-4.7 1.2-1.2 2.7-1.8 4.6-1.9 1.8 0 3.2.5 4.1 1.3.9.8 1.5 1.7 1.7 2.7.3 1 .4 1.9.4 2.6V253h8.5v-19.3c0-1.9.6-3.5 1.8-4.7 1.2-1.2 2.7-1.8 4.6-1.9 1.8 0 3.2.5 4.1 1.3.9.8 1.5 1.7 1.7 2.7.3 1 .4 1.9.4 2.6V253h8.5v-19.4zm37.9 6.1c.4-4.4-.2-8.1-1.6-11.2-1.4-3.1-3.5-5.4-6.1-7-2.6-1.6-5.6-2.4-8.9-2.5-3.1 0-6 .8-8.5 2.4-2.5 1.6-4.6 3.6-6.1 6.3-1.5 2.6-2.3 5.5-2.3 8.8 0 3.2.8 6.1 2.3 8.7 1.5 2.6 3.5 4.7 6.1 6.2 2.5 1.5 5.4 2.3 8.5 2.4 4.1-.1 7.6-1.1 10.4-3.1 2.8-2 4.6-4.8 5.6-8.2h-9.1c-.7 1.3-1.7 2.3-3 2.9-1.2.6-2.6.9-4 .9-2 0-3.8-.6-5.2-1.8-1.5-1.2-2.5-2.8-3.1-4.8h25zm-24.9-6.9c.6-1.9 1.7-3.5 3.1-4.6 1.4-1.1 3.1-1.7 5.1-1.7 2.1 0 3.8.6 5.3 1.7s2.5 2.6 3 4.6h-16.5zm48.3-13.5c-2-.3-4-.2-5.8.5-1.9.6-3.5 1.8-4.9 3.5V220h-8.1v33h8.5v-16.3c0-1.3.1-2.6.4-3.9.3-1.3.9-2.4 1.7-3.3 1-1 2.1-1.7 3.5-1.9 1.4-.3 2.9-.3 4.6-.1v-8.2h.1z"/><path fill="#949CA1" d="M497.2 242.6c-.1-3.5-1.4-5.9-4-7.4-2.6-1.4-6-2.4-10.1-3-2.1-.3-3.7-.7-4.8-1.1-1.1-.4-1.7-1-1.7-1.9 0-.6.4-1.2 1.3-1.8.9-.5 2.3-.8 4.2-.9 1.6 0 2.8.3 3.8.8.9.5 1.5 1.2 1.8 2h8.8c-.6-3.2-2.2-5.7-4.7-7.5-2.6-1.8-5.8-2.8-9.6-2.8-3.2 0-5.8.6-7.9 1.6-2.1 1-3.6 2.3-4.7 3.9-1 1.6-1.5 3.3-1.5 5.1.1 2.4.8 4.3 2.3 5.6 1.5 1.3 3.2 2.3 5.3 2.9 2.1.6 4.2 1.1 6.2 1.3 2.8.4 4.7.9 5.6 1.4.9.5 1.4 1.2 1.3 2.1 0 1-.6 1.7-1.7 2.2-1.1.5-2.5.8-4.3.8-1.3 0-2.7-.3-4-.9-1.4-.6-2.4-1.6-3-3H467c.6 3.6 2.3 6.4 5.1 8.5 2.8 2 6.3 3.1 10.6 3.1 4.3-.1 7.8-1.1 10.4-3.1 2.7-1.9 4-4.6 4.1-7.9zm12.8 1.3h-9.2v9.1h9.2v-9.1"/><path fill-rule="evenodd" clip-rule="evenodd" fill="#949CA1" d="M584.7 233.6c0-4.4-1.3-7.9-3.7-10.5-2.4-2.6-5.9-4-10.3-4-2.1 0-4 .4-5.7 1.3-1.7.8-3.1 2-4.3 3.4-1.2-1.5-2.6-2.6-4.3-3.5-1.7-.8-3.6-1.2-5.6-1.2-1.8 0-3.4.4-4.8 1.1-1.4.7-2.7 1.7-3.7 3V220H534v33h8.5v-19.3c0-1.9.6-3.5 1.8-4.7 1.2-1.2 2.7-1.8 4.6-1.9 1.8 0 3.2.5 4.1 1.3.9.8 1.5 1.7 1.7 2.7.3 1 .4 1.9.4 2.6V253h8.5v-19.3c0-1.9.6-3.5 1.8-4.7 1.2-1.2 2.7-1.8 4.6-1.9 1.8 0 3.2.5 4.1 1.3.9.8 1.5 1.7 1.7 2.7.3 1 .4 1.9.4 2.6V253h8.5v-19.4zm20.9-14.5c-3.1 0-5.9.8-8.4 2.3-2.5 1.5-4.5 3.6-6 6.2s-2.2 5.6-2.3 8.9c0 3.3.8 6.3 2.3 8.9 1.5 2.6 3.5 4.6 6 6.1s5.3 2.3 8.4 2.3c3.1 0 5.9-.8 8.4-2.3 2.5-1.5 4.5-3.5 6-6.1 1.5-2.6 2.3-5.5 2.3-8.9 0-3.3-.8-6.3-2.3-8.9-1.5-2.6-3.5-4.7-6-6.2s-5.3-2.3-8.4-2.3zm0 26.9c-2.3 0-4.2-.9-5.8-2.6-1.5-1.7-2.3-4-2.4-6.8.1-2.9.9-5.2 2.4-7 1.5-1.8 3.5-2.7 5.8-2.7s4.2.9 5.8 2.7c1.5 1.8 2.3 4.1 2.4 7-.1 2.8-.9 5.1-2.4 6.8-1.5 1.7-3.5 2.5-5.8 2.6zm39.9-26.7c-2-.3-4-.2-5.8.5-1.9.6-3.5 1.8-4.9 3.5V220h-8.1v33h8.5v-16.3c0-1.3.1-2.6.4-3.9.3-1.3.9-2.4 1.7-3.3 1-1 2.1-1.7 3.5-1.9 1.4-.3 2.9-.3 4.6-.1v-8.2h.1zm34.7 20.4c.4-4.4-.2-8.1-1.6-11.2-1.4-3.1-3.5-5.4-6.1-7-2.6-1.6-5.6-2.4-8.9-2.5-3.1 0-6 .8-8.5 2.4-2.5 1.6-4.6 3.6-6.1 6.3-1.5 2.6-2.3 5.5-2.3 8.8 0 3.2.8 6.1 2.3 8.7 1.5 2.6 3.5 4.7 6.1 6.2 2.5 1.5 5.4 2.3 8.5 2.4 4.1-.1 7.6-1.1 10.4-3.1 2.8-2 4.6-4.8 5.6-8.2h-9.1c-.7 1.3-1.7 2.3-3 2.9-1.2.6-2.6.9-4 .9-2 0-3.8-.6-5.2-1.8-1.5-1.2-2.5-2.8-3.1-4.8h25zm-24.8-6.9c.6-1.9 1.7-3.5 3.1-4.6 1.4-1.1 3.1-1.7 5.1-1.7 2.1 0 3.8.6 5.3 1.7s2.5 2.6 3 4.6h-16.5zm62.7-13.7c-3.1 0-5.9.8-8.4 2.3-2.5 1.5-4.5 3.6-6 6.2s-2.2 5.6-2.3 8.9c0 3.3.8 6.3 2.3 8.9 1.5 2.6 3.5 4.6 6 6.1s5.3 2.3 8.4 2.3c3.1 0 5.9-.8 8.4-2.3 2.5-1.5 4.5-3.5 6-6.1 1.5-2.6 2.3-5.5 2.3-8.9 0-3.3-.8-6.3-2.3-8.9-1.5-2.6-3.5-4.7-6-6.2s-5.3-2.3-8.4-2.3zm0 26.9c-2.3 0-4.2-.9-5.8-2.6-1.5-1.7-2.3-4-2.4-6.8.1-2.9.9-5.2 2.4-7 1.5-1.8 3.5-2.7 5.8-2.7s4.2.9 5.8 2.7c1.5 1.8 2.3 4.1 2.4 7-.1 2.8-.9 5.1-2.4 6.8-1.6 1.7-3.5 2.5-5.8 2.6z"/><path fill="#949CA1" d="M748.4 220c0-2.3.6-3.9 1.6-4.8 1.1-.9 2.6-1.3 4.7-1.1v-8c-3.2-.3-5.8.1-8 1.2-2.2 1.1-3.8 2.8-5 5-1.1 2.2-1.7 4.8-1.8 7.7h-4v7.5h4V253h8.5v-25.4h6V220h-6zm26.2 25.2c-2.1.1-3.7-.3-4.8-1.2-1.1-1-1.6-2.6-1.6-4.9v-11.7h6v-7.5h-6v-8.4h-8.5v8.4h-4v7.5h4V239c0 4.6 1.3 8.2 3.8 10.7s6.2 3.6 11.1 3.2v-7.7z"/><path fill-rule="evenodd" clip-rule="evenodd" fill="#949CA1" d="M810.6 239.7c.4-4.4-.2-8.1-1.6-11.2-1.4-3.1-3.5-5.4-6.1-7-2.6-1.6-5.6-2.4-8.9-2.5-3.1 0-6 .8-8.5 2.4-2.5 1.6-4.6 3.6-6.1 6.3-1.5 2.6-2.3 5.5-2.3 8.8 0 3.2.8 6.1 2.3 8.7 1.5 2.6 3.5 4.7 6.1 6.2 2.5 1.5 5.4 2.3 8.5 2.4 4.1-.1 7.6-1.1 10.4-3.1 2.8-2 4.6-4.8 5.6-8.2h-9.1c-.7 1.3-1.7 2.3-3 2.9-1.2.6-2.6.9-4 .9-2 0-3.8-.6-5.2-1.8-1.5-1.2-2.5-2.8-3.1-4.8h25zm-24.9-6.9c.6-1.9 1.7-3.5 3.1-4.6 1.4-1.1 3.1-1.7 5.1-1.7 2.1 0 3.8.6 5.3 1.7s2.5 2.6 3 4.6h-16.5zm59.1.8c-.1-4.4-1.2-8-3.5-10.6-2.3-2.6-5.4-4-9.4-4-1.8 0-3.4.4-4.8 1.1-1.4.7-2.7 1.7-3.7 3v-3.2h-8.1V253h8.5v-19.3c0-1.9.6-3.5 1.8-4.7 1.2-1.2 2.7-1.8 4.6-1.9 1.8 0 3.2.5 4.1 1.3.9.8 1.5 1.7 1.7 2.7.3 1 .4 1.9.4 2.6V253h8.5v-19.4h-.1z"/><path fill="#949CA1" d="M859.3 243.9h-9.2v9.1h9.2v-9.1"/></svg>