<svg xmlns="http://www.w3.org/2000/svg" viewBox="0 0 300 78.2"><g opacity=".8" fill="#F5F5F5"><path d="M63.1 57.8H53V34.7c0-.6-.1-1.3-.2-2.1-.2-.8-.5-1.7-1-2.5s-1.3-1.5-2.2-2.1c-1-.6-2.3-.8-4-.8-2.3 0-4.1.7-5.5 2.1-1.4 1.4-2.2 3.2-2.2 5.5v23.1H27.7V34.7c0-.6-.1-1.3-.2-2.1-.2-.8-.5-1.7-1-2.5s-1.2-1.5-2.2-2.1c-1-.6-2.3-.8-4-.8-2.3 0-4.2.7-5.6 2.1-1.4 1.4-2.1 3.2-2.1 5.5v23.1H2.5v-23c0-2.5.4-4.8 1.3-7 .8-2.2 2-4 3.6-5.6 1.5-1.6 3.4-2.8 5.6-3.7 2.2-.9 4.7-1.3 7.4-1.3s5.1.5 7.3 1.5c2.1 1 3.9 2.4 5.3 4.1 1.5-1.7 3.3-3.1 5.5-4.1 2.2-1 4.5-1.5 7.1-1.5 2.8 0 5.2.4 7.4 1.3s4 2.1 5.5 3.7 2.7 3.4 3.5 5.6 1.2 4.5 1.2 7.1v22.8h-.1z"/><path fill-rule="evenodd" clip-rule="evenodd" d="M87.3 49.5c1.3 0 2.6-.3 3.8-.8 1.2-.5 2.2-1.3 3.1-2.3.9-1 1.6-2.2 2.1-3.6s.8-2.9.8-4.6c0-1.7-.3-3.3-.8-4.7-.5-1.4-1.2-2.7-2.1-3.7-.9-1-1.9-1.8-3.1-2.4-1.2-.6-2.4-.8-3.8-.8-1.3 0-2.6.3-3.8.8-1.2.6-2.3 1.4-3.1 2.4-.9 1-1.6 2.3-2.1 3.7-.5 1.4-.8 3-.8 4.7 0 1.7.3 3.2.8 4.6.5 1.4 1.2 2.6 2.1 3.6.9 1 1.9 1.8 3.1 2.3 1.2.5 2.5.8 3.8.8zm0-32.2c2.8 0 5.4.5 7.8 1.6 2.4 1.1 4.5 2.5 6.3 4.4 1.8 1.9 3.3 4.1 4.3 6.6 1.1 2.5 1.6 5.3 1.6 8.3 0 3-.5 5.7-1.6 8.2-1.1 2.5-2.5 4.7-4.3 6.5-1.8 1.8-3.9 3.3-6.3 4.3-2.4 1.1-5 1.6-7.8 1.6s-5.4-.5-7.8-1.6c-2.4-1.1-4.5-2.5-6.3-4.3-1.8-1.8-3.2-4-4.3-6.5-1.1-2.5-1.6-5.3-1.6-8.2 0-3 .5-5.7 1.6-8.3 1.1-2.5 2.5-4.7 4.3-6.6 1.8-1.9 3.9-3.3 6.3-4.4 2.4-1.1 5-1.6 7.8-1.6zM142.8 38.2c0-1.6-.3-3.2-.8-4.5-.5-1.4-1.3-2.6-2.2-3.6-.9-1-2-1.8-3.2-2.4-1.2-.6-2.5-.8-3.9-.8s-2.7.3-3.9.9c-1.2.6-2.3 1.4-3.2 2.4-.9 1-1.7 2.2-2.2 3.6-.5 1.4-.8 2.9-.8 4.5 0 1.5.3 3 .8 4.3.5 1.4 1.3 2.5 2.2 3.5.9 1 2 1.8 3.2 2.4 1.2.6 2.5.9 3.9.9s2.7-.3 3.9-.8c1.2-.6 2.3-1.3 3.2-2.3.9-1 1.7-2.2 2.2-3.5.5-1.6.8-3 .8-4.6zm10.1-.2c0 2.9-.5 5.6-1.5 8.1s-2.4 4.7-4.2 6.6c-1.8 1.9-3.9 3.3-6.4 4.4-2.5 1.1-5.2 1.6-8.2 1.6-3 0-5.8-.5-8.3-1.6-2.5-1.1-4.6-2.5-6.4-4.4-1.8-1.9-3.2-4.1-4.2-6.6s-1.5-5.2-1.5-8.1V.7h10.1l.1 21.3c1.5-1.6 3.2-2.8 5.2-3.5 1.9-.7 4.1-1.1 6.4-1.1 2.6 0 5.1.5 7.4 1.6 2.3 1.1 4.3 2.6 6 4.5 1.7 1.9 3 4.1 4 6.6s1.5 5.1 1.5 7.9z"/><path d="M169 57.8h-10.1V18.3H169v39.5M201.1 57.8h-10.9l-15-39.5h10.6l9.9 29.5 9.9-29.5H216l-14.9 39.5M232.3 57.8h-10.1V18.3h10.1v39.5M257 57.8c-2.9.3-5.5.1-7.7-.5-2.2-.7-4-1.7-5.5-3.2-1.5-1.5-2.6-3.3-3.4-5.5-.8-2.2-1.2-4.6-1.2-7.3v-33h10.1v10.1h7.1v9h-7.1v14c0 2.8.6 4.7 1.9 5.8 1.3 1.1 3.2 1.6 5.7 1.5v9.1h.1zM297.5 59.5c0 2.7-.4 5.1-1.3 7.3-.8 2.2-2 4-3.6 5.6-1.5 1.6-3.4 2.8-5.5 3.6-2.2.8-4.6 1.3-7.2 1.3-2.2 0-4.2-.3-6.1-1-1.9-.7-3.7-1.6-5.2-2.8-1.5-1.2-2.8-2.7-3.8-4.4-1-1.7-1.7-3.6-2.1-5.6h10.5c.3 1.5 1.1 2.6 2.3 3.3 1.2.7 2.7 1.1 4.4 1.1 1.4 0 2.5-.2 3.5-.7.9-.4 1.7-1 2.3-1.8.6-.7 1-1.6 1.3-2.5.3-.9.4-1.8.4-2.7v-4.6c-1.2 1-2.5 1.8-4.1 2.4-1.5.6-3.2.8-5 .8-2.4 0-4.6-.4-6.6-1.3-2-.8-3.7-2-5.1-3.5-1.4-1.5-2.5-3.3-3.3-5.5-.8-2.1-1.2-4.5-1.2-7.1V18.3h10.1v23.1c0 .6.1 1.3.2 2.2.2.9.5 1.7 1 2.6.5.8 1.3 1.6 2.2 2.2 1 .6 2.3.9 3.9.9 2.3 0 4.2-.7 5.6-2.2 1.4-1.5 2.1-3.3 2.1-5.6V18.3h10.1v41.2h.2zM172.8 6.7c0-2.8 2.2-5 5-5s5 2.2 5 5-2.2 5-5 5c-2.7 0-5-2.2-5-5zM158.9 6.7c0-2.8 2.2-5 5-5s5 2.2 5 5-2.2 5-5 5-5-2.2-5-5zM207.7 6.7c0-2.8 2.2-5 5-5s5 2.2 5 5-2.2 5-5 5-5-2.2-5-5zM222.3 6.7c0-2.8 2.2-5 5-5s5 2.2 5 5-2.2 5-5 5-5-2.2-5-5z"/><path fill-rule="evenodd" clip-rule="evenodd" d="M18.4 71.3c0-1.4-.4-2.5-1.1-3.3-.8-.8-1.8-1.2-3.2-1.3-.7 0-1.3.1-1.8.4-.5.3-1 .6-1.3 1.1-.4-.5-.8-.8-1.3-1.1-.5-.3-1.1-.4-1.7-.4-.6 0-1.1.1-1.5.3-.4.2-.8.5-1.1.9v-1H2.6v10.3h2.7v-6c0-.6.2-1.1.6-1.5.4-.4.8-.6 1.4-.6.6 0 1 .1 1.3.4.3.2.5.5.5.8.1.3.1.6.1.8v6h2.7v-6c0-.6.2-1.1.6-1.5.4-.4.8-.6 1.4-.6.6 0 1 .1 1.3.4.3.2.5.5.5.8.1.3.1.6.1.8v6h2.6v-5.7zM24.9 66.7c-1 0-1.8.2-2.6.7-.8.5-1.4 1.1-1.9 1.9-.5.8-.7 1.7-.7 2.8 0 1 .2 2 .7 2.8.5.8 1.1 1.4 1.9 1.9.8.5 1.6.7 2.6.7s1.8-.2 2.6-.7c.8-.5 1.4-1.1 1.9-1.9.5-.8.7-1.7.7-2.8 0-1-.2-2-.7-2.8-.5-.8-1.1-1.5-1.9-1.9-.8-.4-1.7-.7-2.6-.7zm0 8.4c-.7 0-1.3-.3-1.8-.8s-.7-1.2-.7-2.1c0-.9.3-1.6.7-2.2.5-.5 1.1-.8 1.8-.8s1.3.3 1.8.8.7 1.3.7 2.2c0 .9-.3 1.6-.7 2.1-.5.5-1.1.8-1.8.8zM37.3 66.8c-.6-.1-1.2-.1-1.8.1-.6.2-1.1.6-1.5 1.1v-1h-2.5v10.3h2.6v-5c0-.4 0-.8.1-1.2.1-.4.3-.7.5-1 .3-.3.7-.5 1.1-.6.4-.1.9-.1 1.4 0v-2.7h.1zM48 73.2c.1-1.4-.1-2.5-.5-3.5s-1.1-1.7-1.9-2.2c-.8-.5-1.7-.8-2.8-.8-1 0-1.9.3-2.7.7-.8.5-1.4 1.1-1.9 1.9-.5.8-.7 1.7-.7 2.7 0 1 .3 1.9.7 2.7.5.8 1.1 1.4 1.9 1.9.8.5 1.7.7 2.7.7 1.3 0 2.4-.3 3.2-1 .9-.6 1.4-1.5 1.8-2.5H45c-.2.4-.5.7-.9.9-.4.2-.8.3-1.3.3-.6 0-1.2-.2-1.6-.5-.5-.4-.8-.9-1-1.5H48v.2zM40.3 71c.2-.6.5-1.1 1-1.4.4-.3 1-.5 1.6-.5.6 0 1.2.2 1.6.5.5.3.8.8.9 1.4h-5.1z"/><path d="M64.9 73.8h-2.8c-.2.4-.5.7-.8.9-.4.2-.8.4-1.3.4-.7 0-1.4-.3-1.9-.9-.5-.6-.8-1.3-.8-2.1s.3-1.6.8-2.1c.5-.6 1.1-.9 1.9-.9.5 0 .9.1 1.3.4.4.2.7.6.8.9h2.8c-.3-1.2-.9-2.1-1.8-2.7-.9-.6-1.9-1-3.2-1-1 0-2 .3-2.7.7-.8.5-1.4 1.1-1.9 1.9-.5.8-.7 1.7-.7 2.7 0 1 .2 1.9.7 2.7s1.1 1.4 1.9 1.9c.8.5 1.7.7 2.7.7 1.3 0 2.3-.3 3.2-1 .9-.4 1.5-1.3 1.8-2.5z"/><path fill-rule="evenodd" clip-rule="evenodd" d="M75.2 67h-2.6v6c0 .6-.2 1.1-.6 1.4-.4.4-.8.6-1.4.6-.6 0-1-.1-1.3-.4-.3-.2-.5-.5-.5-.8-.1-.3-.1-.6-.1-.8v-6H66v6c0 1.4.4 2.5 1.1 3.3.7.8 1.7 1.2 2.9 1.2.5 0 1-.1 1.5-.3.4-.2.8-.5 1.1-.9v.9h2.5V67h.1z"/><path d="M85.8 74c0-1.1-.4-1.8-1.2-2.3-.8-.4-1.9-.7-3.2-.9-.6-.1-1.1-.2-1.5-.3-.4-.1-.5-.3-.5-.6 0-.2.1-.4.4-.6.3-.2.7-.3 1.3-.3.5 0 .9.1 1.2.2.3.2.5.4.6.6h2.7c-.2-1-.7-1.8-1.5-2.3-.8-.6-1.8-.9-3-.9-1 0-1.8.2-2.5.5-.6.3-1.1.7-1.5 1.2-.3.5-.5 1-.5 1.6 0 .8.3 1.3.7 1.8.5.4 1 .7 1.7.9.7.2 1.3.3 1.9.4.9.1 1.5.3 1.8.4.3.2.4.4.4.7 0 .3-.2.5-.5.7-.3.2-.8.2-1.3.2-.4 0-.8-.1-1.3-.3-.4-.2-.7-.5-.9-.9h-2.7c.2 1.1.7 2 1.6 2.6.9.6 2 1 3.3 1 1.3 0 2.4-.3 3.2-1 .9-.5 1.3-1.3 1.3-2.4zM92.2 74.9c-.7 0-1.2-.1-1.5-.4-.3-.3-.5-.8-.5-1.5v-3.6h1.9V67h-1.9v-2.6h-2.6V67h-1.2v2.3h1.2v3.6c0 1.4.4 2.5 1.2 3.3.8.8 1.9 1.1 3.4 1v-2.3z"/><path fill-rule="evenodd" clip-rule="evenodd" d="M98.1 66.7c-1 0-1.8.2-2.6.7-.8.5-1.4 1.1-1.9 1.9-.5.8-.7 1.7-.7 2.8 0 1 .2 2 .7 2.8.5.8 1.1 1.4 1.9 1.9.8.5 1.6.7 2.6.7s1.8-.2 2.6-.7c.8-.5 1.4-1.1 1.9-1.9.5-.8.7-1.7.7-2.8 0-1-.2-2-.7-2.8-.5-.8-1.1-1.5-1.9-1.9s-1.6-.7-2.6-.7zm0 8.4c-.7 0-1.3-.3-1.8-.8s-.7-1.2-.7-2.1c0-.9.3-1.6.7-2.2.5-.5 1.1-.8 1.8-.8s1.3.3 1.8.8.7 1.3.7 2.2c0 .9-.3 1.6-.7 2.1-.5.5-1.1.8-1.8.8zM120.4 71.3c0-1.4-.4-2.5-1.1-3.3-.8-.8-1.8-1.2-3.2-1.3-.7 0-1.3.1-1.8.4-.5.3-1 .6-1.3 1.1-.4-.5-.8-.8-1.3-1.1-.5-.3-1.1-.4-1.7-.4-.6 0-1.1.1-1.5.3-.4.2-.8.5-1.1.9v-1h-2.5v10.3h2.7v-6c0-.6.2-1.1.6-1.5.4-.4.8-.6 1.4-.6.6 0 1 .1 1.3.4.3.2.5.5.5.8.1.3.1.6.1.8v6h2.7v-6c0-.6.2-1.1.6-1.5.4-.4.8-.6 1.4-.6.6 0 1 .1 1.3.4.3.2.5.5.5.8.1.3.1.6.1.8v6h2.6v-5.7h-.3zM132.2 73.2c.1-1.4-.1-2.5-.5-3.5s-1.1-1.7-1.9-2.2c-.8-.5-1.7-.8-2.8-.8-1 0-1.9.3-2.7.7-.8.5-1.4 1.1-1.9 1.9-.5.8-.7 1.7-.7 2.7 0 1 .3 1.9.7 2.7.5.8 1.1 1.4 1.9 1.9.8.5 1.7.7 2.7.7 1.3 0 2.4-.3 3.2-1 .9-.6 1.4-1.5 1.8-2.5h-2.8c-.2.4-.5.7-.9.9-.4.2-.8.3-1.3.3-.6 0-1.2-.2-1.6-.5-.5-.4-.8-.9-1-1.5h7.8v.2zm-7.8-2.2c.2-.6.5-1.1 1-1.4.4-.3 1-.5 1.6-.5.6 0 1.2.2 1.6.5.5.3.8.8.9 1.4h-5.1zM139.4 66.8c-.6-.1-1.2-.1-1.8.1-.6.2-1.1.6-1.5 1.1v-1h-2.5v10.3h2.6v-5c0-.4 0-.8.1-1.2.1-.4.3-.7.5-1 .3-.3.7-.5 1.1-.6.4-.1.9-.1 1.4 0v-2.7h.1z"/><path d="M149.1 74c0-1.1-.4-1.8-1.2-2.3-.8-.4-1.9-.7-3.2-.9-.6-.1-1.1-.2-1.5-.3-.4-.1-.5-.3-.5-.6 0-.2.1-.4.4-.6.3-.2.7-.3 1.3-.3.5 0 .9.1 1.2.2.3.2.5.4.6.6h2.7c-.2-1-.7-1.8-1.5-2.3-.8-.6-1.8-.9-3-.9-1 0-1.8.2-2.5.5-.6.3-1.1.7-1.5 1.2-.3.5-.5 1-.5 1.6 0 .8.3 1.3.7 1.8.5.4 1 .7 1.7.9.7.2 1.3.3 1.9.4.9.1 1.5.3 1.8.4.3.2.4.4.4.7 0 .3-.2.5-.5.7-.3.2-.8.2-1.3.2-.4 0-.8-.1-1.3-.3-.4-.2-.7-.5-.9-.9h-2.7c.2 1.1.7 2 1.6 2.6.9.6 2 1 3.3 1 1.3 0 2.4-.3 3.2-1 .9-.5 1.3-1.3 1.3-2.4zM153.1 74.5h-2.8v2.8h2.8v-2.8"/><path fill-rule="evenodd" clip-rule="evenodd" d="M176.3 71.3c0-1.4-.4-2.5-1.1-3.3-.8-.8-1.8-1.2-3.2-1.3-.7 0-1.3.1-1.8.4-.5.3-1 .6-1.3 1.1-.4-.5-.8-.8-1.3-1.1-.5-.3-1.1-.4-1.7-.4-.6 0-1.1.1-1.5.3-.4.2-.8.5-1.1.9v-1h-2.5v10.3h2.7v-6c0-.6.2-1.1.6-1.5.4-.4.8-.6 1.4-.6.6 0 1 .1 1.3.4.3.2.5.5.5.8.1.3.1.6.1.8v6h2.7v-6c0-.6.2-1.1.6-1.5.4-.4.8-.6 1.4-.6.6 0 1 .1 1.3.4.3.2.5.5.5.8.1.3.1.6.1.8v6h2.6v-5.7h-.3zM182.8 66.7c-1 0-1.8.2-2.6.7-.8.5-1.4 1.1-1.9 1.9-.5.8-.7 1.7-.7 2.8 0 1 .2 2 .7 2.8.5.8 1.1 1.4 1.9 1.9.8.5 1.6.7 2.6.7s1.8-.2 2.6-.7c.8-.5 1.4-1.1 1.9-1.9.5-.8.7-1.7.7-2.8 0-1-.2-2-.7-2.8-.5-.8-1.1-1.5-1.9-1.9-.8-.4-1.6-.7-2.6-.7zm0 8.4c-.7 0-1.3-.3-1.8-.8s-.7-1.2-.7-2.1c0-.9.3-1.6.7-2.2.5-.5 1.1-.8 1.8-.8s1.3.3 1.8.8.7 1.3.7 2.2c0 .9-.3 1.6-.7 2.1-.5.5-1.1.8-1.8.8zM195.2 66.8c-.6-.1-1.2-.1-1.8.1-.6.2-1.1.6-1.5 1.1v-1h-2.5v10.3h2.6v-5c0-.4 0-.8.1-1.2.1-.4.3-.7.5-1 .3-.3.7-.5 1.1-.6.4-.1.9-.1 1.4 0v-2.7h.1zM206 73.2c.1-1.4-.1-2.5-.5-3.5s-1.1-1.7-1.9-2.2c-.8-.5-1.7-.8-2.8-.8-1 0-1.9.3-2.7.7-.8.5-1.4 1.1-1.9 1.9-.5.8-.7 1.7-.7 2.7 0 1 .3 1.9.7 2.7s1.1 1.4 1.9 1.9c.8.5 1.7.7 2.7.7 1.3 0 2.4-.3 3.2-1 .9-.6 1.4-1.5 1.8-2.5H203c-.2.4-.5.7-.9.9-.4.2-.8.3-1.3.3-.6 0-1.2-.2-1.6-.5-.5-.4-.8-.9-.9-1.5h7.7v.2zm-7.8-2.2c.2-.6.5-1.1 1-1.4.4-.3 1-.5 1.6-.5.6 0 1.2.2 1.6.5.5.3.8.8.9 1.4h-5.1zM217.7 66.7c-1 0-1.8.2-2.6.7-.8.5-1.4 1.1-1.9 1.9-.5.8-.7 1.7-.7 2.8 0 1 .2 2 .7 2.8.5.8 1.1 1.4 1.9 1.9.8.5 1.6.7 2.6.7s1.8-.2 2.6-.7c.8-.5 1.4-1.1 1.9-1.9.5-.8.7-1.7.7-2.8 0-1-.2-2-.7-2.8-.5-.8-1.1-1.5-1.9-1.9-.7-.4-1.6-.7-2.6-.7zm0 8.4c-.7 0-1.3-.3-1.8-.8s-.7-1.2-.7-2.1c0-.9.3-1.6.7-2.2.5-.5 1.1-.8 1.8-.8s1.3.3 1.8.8.7 1.3.7 2.2c0 .9-.3 1.6-.7 2.1-.5.5-1.1.8-1.8.8z"/><path d="M227.1 67c0-.7.2-1.2.5-1.5.3-.3.8-.4 1.4-.3v-2.5c-1-.1-1.8 0-2.5.4s-1.2.9-1.5 1.6c-.4.7-.5 1.5-.6 2.4h-1.2v2.3h1.2v7.9h2.6v-7.9h1.9V67h-1.8zM235.3 74.9c-.7 0-1.2-.1-1.5-.4-.3-.3-.5-.8-.5-1.5v-3.6h1.9V67h-1.9v-2.6h-2.6V67h-1.2v2.3h1.2v3.6c0 1.4.4 2.5 1.2 3.3.8.8 1.9 1.1 3.4 1v-2.3z"/><path fill-rule="evenodd" clip-rule="evenodd" d="M246.4 73.2c.1-1.4-.1-2.5-.5-3.5s-1.1-1.7-1.9-2.2c-.8-.5-1.7-.8-2.8-.8-1 0-1.9.3-2.7.7-.8.5-1.4 1.1-1.9 1.9-.5.8-.7 1.7-.7 2.7 0 1 .3 1.9.7 2.7.5.8 1.1 1.4 1.9 1.9.8.5 1.7.7 2.7.7 1.3 0 2.4-.3 3.2-1 .9-.6 1.4-1.5 1.8-2.5h-2.8c-.2.4-.5.7-.9.9-.4.2-.8.3-1.3.3-.6 0-1.2-.2-1.6-.5-.5-.4-.8-.9-1-1.5h7.8v.2zm-7.7-2.2c.2-.6.5-1.1 1-1.4.4-.3 1-.5 1.6-.5.6 0 1.2.2 1.6.5.5.3.8.8.9 1.4h-5.1zM257.1 71.3c0-1.4-.4-2.5-1.1-3.3-.7-.8-1.7-1.2-2.9-1.2-.5 0-1 .1-1.5.3-.4.2-.8.5-1.2.9v-1h-2.5v10.3h2.6v-6c0-.6.2-1.1.6-1.5.4-.4.8-.6 1.4-.6.6 0 1 .1 1.3.4.3.2.5.5.5.8.1.3.1.6.1.8v6h2.6v-5.9h.1z"/><path d="M261.6 74.5h-2.9v2.8h2.9v-2.8"/></g></svg>