<svg id="Layer_1" xmlns="http://www.w3.org/2000/svg" viewBox="204.1 31 631.1 467.1"><style>.st0{fill:none;stroke:#AE4E9D;stroke-width:10;stroke-miterlimit:10;} .st1{fill:none;stroke:#E82336;stroke-width:10;stroke-miterlimit:10;} .st2{fill:none;stroke:#6E459B;stroke-width:10;stroke-miterlimit:10;} .st3{fill:none;stroke:#949CA1;stroke-width:5;stroke-miterlimit:10;} .st4{fill:#8EC640;} .st5{fill:none;stroke:#8EC640;stroke-width:10;stroke-miterlimit:10;} .st6{fill:none;stroke:#3BBEB3;stroke-width:10;stroke-miterlimit:10;} .st7{fill:none;stroke:#F5951F;stroke-width:10;stroke-miterlimit:10;} .st8{fill:none;stroke:#29AAE2;stroke-width:10;stroke-miterlimit:10;} .st9{fill:#949CA1;}</style><path class="st0" d="M380.5 170.7l69.8 318.9"/><path class="st1" d="M659.9 466.1l72.8-295.4"/><path class="st2" d="M313.2 415.9L695 170.7"/><path class="st3" d="M436.2 233.9c-15.5 0-28 27.3-28 42.8 0 15.5 12.6 28 28 28s28-12.6 28-28c0-15.5-12.5-42.8-28-42.8z"/><path class="st4" d="M425.3 280.8h-4.2v-16.2h4.2zM438.4 280.8H434l-6.2-16.2h4.4l4 12.1 4.1-12.1h4.3zM451.2 280.8h-4.1v-16.2h4.1zM426.8 259.9c0-1.1.9-2 2-2s2 .9 2 2-.9 2-2 2c-1 0-2-.9-2-2zM421.1 259.9c0-1.1.9-2 2-2s2 .9 2 2-.9 2-2 2-2-.9-2-2zM441.1 259.9c0-1.1.9-2 2-2s2 .9 2 2-.9 2-2 2c-1 0-2-.9-2-2zM447.1 259.9c0-1.1.9-2 2-2s2 .9 2 2-.9 2-2 2-2-.9-2-2z"/><path class="st5" d="M387.7 466.1l122.8-295.4"/><path class="st6" d="M323.5 425.4l475.7-68.9M222 244.8l117.1-68.6"/><path class="st1" d="M240.7 325.7l47.4-152.6"/><path class="st7" d="M362.3 458.4L222 176.2"/><path class="st2" d="M820.1 308.1l-10.4-100.5"/><path class="st8" d="M533.5 170.7l-57.7 325.7"/><path class="st1" d="M205.4 243.6l560.4 148.3"/><path class="st8" d="M246 170.7l394.8 305"/><path class="st5" d="M264.4 355.5l569.7-132.4"/><path class="st6" d="M601.3 168.5l79.1 280.7"/><path class="st0" d="M651.2 168.5L533.5 496.4"/><path class="st7" d="M425.8 483.4L826.2 285"/><g><path class="st4" d="M335.1 152.7h-21.5v-49.2c0-1.2-.1-2.7-.5-4.5-.3-1.8-1.1-3.5-2.2-5.3s-2.7-3.3-4.7-4.5-4.9-1.8-8.5-1.8c-4.7 0-8.7 1.5-11.8 4.5-3.1 3-4.6 6.8-4.6 11.7v49.2h-21.5v-49.2c0-1.2-.1-2.7-.5-4.5-.3-1.8-.9-3.5-2-5.3s-2.6-3.3-4.6-4.5-4.9-1.8-8.5-1.8c-4.9 0-8.8 1.5-11.9 4.5-3 3-4.5 6.8-4.5 11.7V153h-21.5v-48.8c0-5.3.9-10.3 2.7-14.9s4.3-8.5 7.6-11.9 7.3-6 11.9-8c4.7-1.9 9.9-2.8 15.7-2.8s11 1.1 15.4 3.3c4.5 2.2 8.3 5 11.4 8.8 3.1-3.7 7-6.6 11.7-8.8 4.6-2.2 9.6-3.3 15.2-3.3 5.8 0 11.1.9 15.9 2.8 4.6 1.9 8.5 4.5 11.8 7.7 3.3 3.4 5.7 7.3 7.3 11.9 1.6 4.6 2.6 9.6 2.6 15.2l-.4 48.5zM386.4 134.8c2.8 0 5.6-.5 8-1.8 2.6-1.1 4.7-2.8 6.6-4.9 1.9-2.2 3.4-4.6 4.5-7.6s1.6-6.2 1.6-9.8c0-3.7-.5-6.9-1.6-10s-2.6-5.7-4.5-7.9-4.2-3.9-6.6-5c-2.6-1.2-5.1-1.8-8-1.8-2.8 0-5.6.5-8.1 1.8-2.6 1.2-4.7 2.8-6.6 5s-3.4 4.7-4.5 7.9-1.6 6.4-1.6 10c0 3.7.5 6.9 1.6 9.8 1.1 3 2.6 5.4 4.5 7.6s4.1 3.8 6.6 4.9c2.6 1.3 5.3 1.8 8.1 1.8zm0-68.6c5.8 0 11.4 1.1 16.5 3.4 5.1 2.2 9.6 5.3 13.6 9.4 3.9 3.9 6.9 8.7 9.2 14.1 2.2 5.4 3.4 11.2 3.4 17.6s-1.1 12.2-3.4 17.5-5.3 10-9.2 14c-3.9 3.9-8.4 7-13.6 9.2-5.1 2.3-10.6 3.4-16.5 3.4-5.8 0-11.4-1.1-16.5-3.4-5.1-2.2-9.6-5.3-13.4-9.2-3.8-3.9-6.9-8.5-9.1-14-2.3-5.3-3.4-11.2-3.4-17.5 0-6.4 1.1-12.2 3.4-17.6 2.2-5.4 5.3-10 9.1-14.1 3.8-3.9 8.3-7 13.4-9.4 5.2-2.3 10.6-3.4 16.5-3.4zM504.6 110.8c0-3.5-.5-6.6-1.8-9.6-1.1-3-2.7-5.6-4.7-7.7s-4.3-3.9-6.9-5c-2.6-1.2-5.4-1.8-8.4-1.8s-5.7.7-8.4 1.9c-2.6 1.2-4.9 3-6.9 5.1-2 2.2-3.5 4.7-4.7 7.7-1.1 3-1.8 6.1-1.8 9.5 0 3.3.5 6.4 1.8 9.2 1.1 2.8 2.7 5.4 4.7 7.6s4.3 3.8 6.9 5 5.4 1.9 8.4 1.9 5.7-.5 8.4-1.8c2.6-1.2 4.9-2.8 6.9-5s3.5-4.6 4.7-7.6c1.3-2.9 1.8-6 1.8-9.4zm21.6-.2c0 6.1-1.1 11.8-3.3 17.2-2.2 5.4-5.1 10-8.9 14-3.8 3.9-8.4 7.2-13.7 9.5s-11.1 3.4-17.5 3.4-12.3-1.1-17.6-3.4c-5.3-2.3-9.9-5.4-13.7-9.4-3.8-3.9-6.8-8.7-8.9-14s-3.3-11.1-3.3-17.2V31h21.5l.1 45.4c3.1-3.4 6.8-6 11-7.5 4.2-1.6 8.7-2.4 13.6-2.4 5.6 0 10.8 1.1 15.7 3.4s9.2 5.4 12.7 9.5c3.7 4.1 6.5 8.8 8.5 14.1 2.7 5.3 3.8 11 3.8 17.1zM747.6 152.4c-6.2.7-11.7.3-16.4-1.1s-8.7-3.7-11.8-6.9c-3.1-3.1-5.6-7-7.2-11.7-1.6-4.6-2.4-9.9-2.4-15.6V47h21.5v21.4h15.2v19.1h-15.2v29.8c0 5.8 1.4 10 4.1 12.5 2.7 2.4 6.8 3.4 12.2 3.1v19.5zM833.9 156.1c0 5.7-.9 10.8-2.7 15.4s-4.3 8.7-7.6 11.9c-3.3 3.3-7.2 5.8-11.8 7.7-4.6 1.8-9.8 2.7-15.3 2.7-4.6 0-8.9-.7-13.1-2.2-4.2-1.4-7.9-3.4-11-6.1-3.3-2.6-6-5.7-8.1-9.4-2.2-3.7-3.7-7.6-4.5-11.9h22.4c.7 3.1 2.3 5.6 4.9 7 2.6 1.5 5.7 2.3 9.4 2.3 3 0 5.4-.4 7.5-1.4 2-.9 3.7-2.2 4.9-3.8 1.2-1.6 2.2-3.4 2.7-5.3s.8-3.8.8-5.8v-9.8c-2.6 2.2-5.4 3.9-8.7 5-3.3 1.2-6.8 1.8-10.6 1.8-5.1 0-9.8-.9-14.1-2.7-4.2-1.8-7.9-4.3-10.8-7.6-3-3.3-5.3-7-6.9-11.7-1.6-4.5-2.4-9.6-2.4-15.2V67.8h21.5V117c0 1.2.1 2.7.5 4.6.3 1.9 1.1 3.7 2.2 5.4 1.1 1.8 2.7 3.4 4.7 4.6s4.9 1.9 8.4 1.9c4.9 0 8.8-1.5 11.9-4.6 3-3.1 4.5-7 4.5-11.9V67.8h21.5v88h-.2v.3z"/><path class="st9" d="M560.5 152.7h-21.6V68.4h21.6zM628.8 152.7h-23.2l-32-84.3h22.6l20.9 62.9 21.1-62.9h22.3zM695.2 152.7h-21.7V68.4h21.7zM568.6 43.7c0-5.8 4.7-10.6 10.6-10.6 5.8 0 10.6 4.7 10.6 10.6s-4.7 10.6-10.6 10.6c-5.9.1-10.6-4.6-10.6-10.6zM538.9 43.7c0-5.8 4.7-10.6 10.6-10.6s10.6 4.7 10.6 10.6-4.7 10.6-10.6 10.6c-5.9.1-10.6-4.6-10.6-10.6zM642.7 43.7c0-5.8 4.7-10.6 10.6-10.6s10.6 4.7 10.6 10.6-4.7 10.6-10.6 10.6c-5.7.1-10.6-4.6-10.6-10.6zM673.9 43.7c0-5.8 4.7-10.6 10.6-10.6 5.8 0 10.6 4.7 10.6 10.6s-4.7 10.6-10.6 10.6c-5.9.1-10.6-4.6-10.6-10.6z"/></g></svg>