<?xml version="1.0" encoding="utf-8"?>
<!-- Generator: Adobe Illustrator 19.1.0, SVG Export Plug-In . SVG Version: 6.00 Build 0)  -->
<svg version="1.1" id="Layer_1" xmlns="http://www.w3.org/2000/svg" xmlns:xlink="http://www.w3.org/1999/xlink" x="0px" y="0px"
	 viewBox="0 0 300 78.2" enable-background="new 0 0 300 78.2" xml:space="preserve">
<g opacity="0.8">
	<path fill="#F5F5F5" d="M63.1,57.8H53V34.7c0-0.6-0.1-1.3-0.2-2.1c-0.2-0.8-0.5-1.7-1-2.5c-0.5-0.8-1.3-1.5-2.2-2.1
		c-1-0.6-2.3-0.8-4-0.8c-2.3,0-4.1,0.7-5.5,2.1c-1.4,1.4-2.2,3.2-2.2,5.5v23.1H27.7V34.7c0-0.6-0.1-1.3-0.2-2.1
		c-0.2-0.8-0.5-1.7-1-2.5c-0.5-0.8-1.2-1.5-2.2-2.1c-1-0.6-2.3-0.8-4-0.8c-2.3,0-4.2,0.7-5.6,2.1c-1.4,1.4-2.1,3.2-2.1,5.5v23.1H2.5
		V34.9c0-2.5,0.4-4.8,1.3-7c0.8-2.2,2-4,3.6-5.6c1.5-1.6,3.4-2.8,5.6-3.7c2.2-0.9,4.7-1.3,7.4-1.3c2.7,0,5.1,0.5,7.3,1.5
		c2.1,1,3.9,2.4,5.3,4.1c1.5-1.7,3.3-3.1,5.5-4.1c2.2-1,4.5-1.5,7.1-1.5c2.8,0,5.2,0.4,7.4,1.3c2.2,0.9,4,2.1,5.5,3.7
		c1.5,1.6,2.7,3.4,3.5,5.6s1.2,4.5,1.2,7.1V57.8L63.1,57.8z"/>
	<path fill-rule="evenodd" clip-rule="evenodd" fill="#F5F5F5" d="M87.3,49.5c1.3,0,2.6-0.3,3.8-0.8c1.2-0.5,2.2-1.3,3.1-2.3
		c0.9-1,1.6-2.2,2.1-3.6c0.5-1.4,0.8-2.9,0.8-4.6c0-1.7-0.3-3.3-0.8-4.7c-0.5-1.4-1.2-2.7-2.1-3.7c-0.9-1-1.9-1.8-3.1-2.4
		c-1.2-0.6-2.4-0.8-3.8-0.8c-1.3,0-2.6,0.3-3.8,0.8c-1.2,0.6-2.3,1.4-3.1,2.4c-0.9,1-1.6,2.3-2.1,3.7c-0.5,1.4-0.8,3-0.8,4.7
		c0,1.7,0.3,3.2,0.8,4.6c0.5,1.4,1.2,2.6,2.1,3.6c0.9,1,1.9,1.8,3.1,2.3C84.7,49.2,86,49.5,87.3,49.5L87.3,49.5z M87.3,17.3
		c2.8,0,5.4,0.5,7.8,1.6c2.4,1.1,4.5,2.5,6.3,4.4c1.8,1.9,3.3,4.1,4.3,6.6c1.1,2.5,1.6,5.3,1.6,8.3c0,3-0.5,5.7-1.6,8.2
		c-1.1,2.5-2.5,4.7-4.3,6.5c-1.8,1.8-3.9,3.3-6.3,4.3c-2.4,1.1-5,1.6-7.8,1.6c-2.8,0-5.4-0.5-7.8-1.6c-2.4-1.1-4.5-2.5-6.3-4.3
		c-1.8-1.8-3.2-4-4.3-6.5c-1.1-2.5-1.6-5.3-1.6-8.2c0-3,0.5-5.7,1.6-8.3c1.1-2.5,2.5-4.7,4.3-6.6c1.8-1.9,3.9-3.3,6.3-4.4
		C81.9,17.8,84.5,17.3,87.3,17.3L87.3,17.3z"/>
	<path fill-rule="evenodd" clip-rule="evenodd" fill="#F5F5F5" d="M142.8,38.2c0-1.6-0.3-3.2-0.8-4.5c-0.5-1.4-1.3-2.6-2.2-3.6
		c-0.9-1-2-1.8-3.2-2.4c-1.2-0.6-2.5-0.8-3.9-0.8c-1.4,0-2.7,0.3-3.9,0.9c-1.2,0.6-2.3,1.4-3.2,2.4c-0.9,1-1.7,2.2-2.2,3.6
		c-0.5,1.4-0.8,2.9-0.8,4.5c0,1.5,0.3,3,0.8,4.3c0.5,1.4,1.3,2.5,2.2,3.5c0.9,1,2,1.8,3.2,2.4c1.2,0.6,2.5,0.9,3.9,0.9
		c1.4,0,2.7-0.3,3.9-0.8c1.2-0.6,2.3-1.3,3.2-2.3c0.9-1,1.7-2.2,2.2-3.5C142.5,41.2,142.8,39.8,142.8,38.2L142.8,38.2z M152.9,38
		c0,2.9-0.5,5.6-1.5,8.1c-1,2.5-2.4,4.7-4.2,6.6c-1.8,1.9-3.9,3.3-6.4,4.4c-2.5,1.1-5.2,1.6-8.2,1.6c-3,0-5.8-0.5-8.3-1.6
		c-2.5-1.1-4.6-2.5-6.4-4.4c-1.8-1.9-3.2-4.1-4.2-6.6c-1-2.5-1.5-5.2-1.5-8.1V0.7h10.1l0.1,21.3c1.5-1.6,3.2-2.8,5.2-3.5
		c1.9-0.7,4.1-1.1,6.4-1.1c2.6,0,5.1,0.5,7.4,1.6c2.3,1.1,4.3,2.6,6,4.5c1.7,1.9,3,4.1,4,6.6C152.4,32.6,152.9,35.2,152.9,38
		L152.9,38z"/>
	<polygon fill="#F5F5F5" points="169,57.8 158.9,57.8 158.9,18.3 169,18.3 169,57.8 	"/>
	<polygon fill="#F5F5F5" points="201.1,57.8 190.2,57.8 175.2,18.3 185.8,18.3 195.7,47.8 205.6,18.3 216,18.3 201.1,57.8 	"/>
	<polygon fill="#F5F5F5" points="232.3,57.8 222.2,57.8 222.2,18.3 232.3,18.3 232.3,57.8 	"/>
	<path fill="#F5F5F5" d="M257,57.8c-2.9,0.3-5.5,0.1-7.7-0.5c-2.2-0.7-4-1.7-5.5-3.2c-1.5-1.5-2.6-3.3-3.4-5.5
		c-0.8-2.2-1.2-4.6-1.2-7.3v-33h10.1v10.1h7.1v9h-7.1v14c0,2.8,0.6,4.7,1.9,5.8c1.3,1.1,3.2,1.6,5.7,1.5V57.8L257,57.8z"/>
	<path fill="#F5F5F5" d="M297.5,59.5c0,2.7-0.4,5.1-1.3,7.3c-0.8,2.2-2,4-3.6,5.6c-1.5,1.6-3.4,2.8-5.5,3.6
		c-2.2,0.8-4.6,1.3-7.2,1.3c-2.2,0-4.2-0.3-6.1-1c-1.9-0.7-3.7-1.6-5.2-2.8c-1.5-1.2-2.8-2.7-3.8-4.4c-1-1.7-1.7-3.6-2.1-5.6h10.5
		c0.3,1.5,1.1,2.6,2.3,3.3c1.2,0.7,2.7,1.1,4.4,1.1c1.4,0,2.5-0.2,3.5-0.7c0.9-0.4,1.7-1,2.3-1.8c0.6-0.7,1-1.6,1.3-2.5
		c0.3-0.9,0.4-1.8,0.4-2.7v-4.6c-1.2,1-2.5,1.8-4.1,2.4c-1.5,0.6-3.2,0.8-5,0.8c-2.4,0-4.6-0.4-6.6-1.3c-2-0.8-3.7-2-5.1-3.5
		c-1.4-1.5-2.5-3.3-3.3-5.5c-0.8-2.1-1.2-4.5-1.2-7.1V18.3h10.1v23.1c0,0.6,0.1,1.3,0.2,2.2c0.2,0.9,0.5,1.7,1,2.6
		c0.5,0.8,1.3,1.6,2.2,2.2c1,0.6,2.3,0.9,3.9,0.9c2.3,0,4.2-0.7,5.6-2.2c1.4-1.5,2.1-3.3,2.1-5.6V18.3h10.1V59.5L297.5,59.5z"/>
	<path fill="#F5F5F5" d="M172.8,6.7c0-2.8,2.2-5,5-5c2.8,0,5,2.2,5,5c0,2.8-2.2,5-5,5C175.1,11.7,172.8,9.5,172.8,6.7L172.8,6.7z"/>
	<path fill="#F5F5F5" d="M158.9,6.7c0-2.8,2.2-5,5-5c2.8,0,5,2.2,5,5c0,2.8-2.2,5-5,5C161.1,11.7,158.9,9.5,158.9,6.7L158.9,6.7z"/>
	<path fill="#F5F5F5" d="M207.7,6.7c0-2.8,2.2-5,5-5c2.8,0,5,2.2,5,5c0,2.8-2.2,5-5,5C209.9,11.7,207.7,9.5,207.7,6.7L207.7,6.7z"/>
	<path fill="#F5F5F5" d="M222.3,6.7c0-2.8,2.2-5,5-5c2.8,0,5,2.2,5,5c0,2.8-2.2,5-5,5C224.5,11.7,222.3,9.5,222.3,6.7L222.3,6.7z"/>
	<path fill-rule="evenodd" clip-rule="evenodd" fill="#F5F5F5" d="M18.4,71.3c0-1.4-0.4-2.5-1.1-3.3c-0.8-0.8-1.8-1.2-3.2-1.3
		c-0.7,0-1.3,0.1-1.8,0.4c-0.5,0.3-1,0.6-1.3,1.1c-0.4-0.5-0.8-0.8-1.3-1.1c-0.5-0.3-1.1-0.4-1.7-0.4c-0.6,0-1.1,0.1-1.5,0.3
		c-0.4,0.2-0.8,0.5-1.1,0.9v-1H2.6v10.3h2.7v-6c0-0.6,0.2-1.1,0.6-1.5c0.4-0.4,0.8-0.6,1.4-0.6c0.6,0,1,0.1,1.3,0.4
		c0.3,0.2,0.5,0.5,0.5,0.8c0.1,0.3,0.1,0.6,0.1,0.8v6h2.7v-6c0-0.6,0.2-1.1,0.6-1.5c0.4-0.4,0.8-0.6,1.4-0.6c0.6,0,1,0.1,1.3,0.4
		c0.3,0.2,0.5,0.5,0.5,0.8c0.1,0.3,0.1,0.6,0.1,0.8v6h2.6V71.3L18.4,71.3z"/>
	<path fill-rule="evenodd" clip-rule="evenodd" fill="#F5F5F5" d="M24.9,66.7c-1,0-1.8,0.2-2.6,0.7c-0.8,0.5-1.4,1.1-1.9,1.9
		c-0.5,0.8-0.7,1.7-0.7,2.8c0,1,0.2,2,0.7,2.8c0.5,0.8,1.1,1.4,1.9,1.9c0.8,0.5,1.6,0.7,2.6,0.7c1,0,1.8-0.2,2.6-0.7
		c0.8-0.5,1.4-1.1,1.9-1.9c0.5-0.8,0.7-1.7,0.7-2.8c0-1-0.2-2-0.7-2.8c-0.5-0.8-1.1-1.5-1.9-1.9C26.7,67,25.8,66.7,24.9,66.7
		L24.9,66.7z M24.9,75.1c-0.7,0-1.3-0.3-1.8-0.8c-0.5-0.5-0.7-1.2-0.7-2.1c0-0.9,0.3-1.6,0.7-2.2c0.5-0.5,1.1-0.8,1.8-0.8
		c0.7,0,1.3,0.3,1.8,0.8c0.5,0.5,0.7,1.3,0.7,2.2c0,0.9-0.3,1.6-0.7,2.1C26.2,74.8,25.6,75.1,24.9,75.1L24.9,75.1z"/>
	<path fill-rule="evenodd" clip-rule="evenodd" fill="#F5F5F5" d="M37.3,66.8c-0.6-0.1-1.2-0.1-1.8,0.1c-0.6,0.2-1.1,0.6-1.5,1.1v-1
		h-2.5v10.3h2.6v-5c0-0.4,0-0.8,0.1-1.2c0.1-0.4,0.3-0.7,0.5-1c0.3-0.3,0.7-0.5,1.1-0.6c0.4-0.1,0.9-0.1,1.4,0V66.8L37.3,66.8z"/>
	<path fill-rule="evenodd" clip-rule="evenodd" fill="#F5F5F5" d="M48,73.2c0.1-1.4-0.1-2.5-0.5-3.5c-0.4-1-1.1-1.7-1.9-2.2
		c-0.8-0.5-1.7-0.8-2.8-0.8c-1,0-1.9,0.3-2.7,0.7c-0.8,0.5-1.4,1.1-1.9,1.9c-0.5,0.8-0.7,1.7-0.7,2.7c0,1,0.3,1.9,0.7,2.7
		c0.5,0.8,1.1,1.4,1.9,1.9c0.8,0.5,1.7,0.7,2.7,0.7c1.3,0,2.4-0.3,3.2-1c0.9-0.6,1.4-1.5,1.8-2.5H45c-0.2,0.4-0.5,0.7-0.9,0.9
		c-0.4,0.2-0.8,0.3-1.3,0.3c-0.6,0-1.2-0.2-1.6-0.5c-0.5-0.4-0.8-0.9-1-1.5H48L48,73.2z M40.3,71c0.2-0.6,0.5-1.1,1-1.4
		c0.4-0.3,1-0.5,1.6-0.5c0.6,0,1.2,0.2,1.6,0.5c0.5,0.3,0.8,0.8,0.9,1.4H40.3L40.3,71z"/>
	<path fill="#F5F5F5" d="M64.9,73.8h-2.8c-0.2,0.4-0.5,0.7-0.8,0.9c-0.4,0.2-0.8,0.4-1.3,0.4c-0.7,0-1.4-0.3-1.9-0.9
		c-0.5-0.6-0.8-1.3-0.8-2.1c0-0.8,0.3-1.6,0.8-2.1c0.5-0.6,1.1-0.9,1.9-0.9c0.5,0,0.9,0.1,1.3,0.4c0.4,0.2,0.7,0.6,0.8,0.9h2.8
		c-0.3-1.2-0.9-2.1-1.8-2.7c-0.9-0.6-1.9-1-3.2-1c-1,0-2,0.3-2.7,0.7c-0.8,0.5-1.4,1.1-1.9,1.9c-0.5,0.8-0.7,1.7-0.7,2.7
		c0,1,0.2,1.9,0.7,2.7s1.1,1.4,1.9,1.9c0.8,0.5,1.7,0.7,2.7,0.7c1.3,0,2.3-0.3,3.2-1C64,75.9,64.6,75,64.9,73.8L64.9,73.8z"/>
	<path fill-rule="evenodd" clip-rule="evenodd" fill="#F5F5F5" d="M75.2,67h-2.6v6c0,0.6-0.2,1.1-0.6,1.4c-0.4,0.4-0.8,0.6-1.4,0.6
		c-0.6,0-1-0.1-1.3-0.4c-0.3-0.2-0.5-0.5-0.5-0.8c-0.1-0.3-0.1-0.6-0.1-0.8v-6H66v6c0,1.4,0.4,2.5,1.1,3.3c0.7,0.8,1.7,1.2,2.9,1.2
		c0.5,0,1-0.1,1.5-0.3c0.4-0.2,0.8-0.5,1.1-0.9v0.9h2.5V67L75.2,67z"/>
	<path fill="#F5F5F5" d="M85.8,74c0-1.1-0.4-1.8-1.2-2.3c-0.8-0.4-1.9-0.7-3.2-0.9c-0.6-0.1-1.1-0.2-1.5-0.3
		c-0.4-0.1-0.5-0.3-0.5-0.6c0-0.2,0.1-0.4,0.4-0.6c0.3-0.2,0.7-0.3,1.3-0.3c0.5,0,0.9,0.1,1.2,0.2c0.3,0.2,0.5,0.4,0.6,0.6h2.7
		c-0.2-1-0.7-1.8-1.5-2.3c-0.8-0.6-1.8-0.9-3-0.9c-1,0-1.8,0.2-2.5,0.5c-0.6,0.3-1.1,0.7-1.5,1.2c-0.3,0.5-0.5,1-0.5,1.6
		c0,0.8,0.3,1.3,0.7,1.8c0.5,0.4,1,0.7,1.7,0.9c0.7,0.2,1.3,0.3,1.9,0.4c0.9,0.1,1.5,0.3,1.8,0.4c0.3,0.2,0.4,0.4,0.4,0.7
		c0,0.3-0.2,0.5-0.5,0.7c-0.3,0.2-0.8,0.2-1.3,0.2c-0.4,0-0.8-0.1-1.3-0.3c-0.4-0.2-0.7-0.5-0.9-0.9h-2.7c0.2,1.1,0.7,2,1.6,2.6
		c0.9,0.6,2,1,3.3,1c1.3,0,2.4-0.3,3.2-1C85.4,75.9,85.8,75.1,85.8,74L85.8,74z"/>
	<path fill="#F5F5F5" d="M92.2,74.9c-0.7,0-1.2-0.1-1.5-0.4c-0.3-0.3-0.5-0.8-0.5-1.5v-3.6h1.9V67h-1.9v-2.6h-2.6V67h-1.2v2.3h1.2
		v3.6c0,1.4,0.4,2.5,1.2,3.3c0.8,0.8,1.9,1.1,3.4,1V74.9L92.2,74.9z"/>
	<path fill-rule="evenodd" clip-rule="evenodd" fill="#F5F5F5" d="M98.1,66.7c-1,0-1.8,0.2-2.6,0.7c-0.8,0.5-1.4,1.1-1.9,1.9
		c-0.5,0.8-0.7,1.7-0.7,2.8c0,1,0.2,2,0.7,2.8c0.5,0.8,1.1,1.4,1.9,1.9c0.8,0.5,1.6,0.7,2.6,0.7c1,0,1.8-0.2,2.6-0.7
		c0.8-0.5,1.4-1.1,1.9-1.9c0.5-0.8,0.7-1.7,0.7-2.8c0-1-0.2-2-0.7-2.8c-0.5-0.8-1.1-1.5-1.9-1.9S99.1,66.7,98.1,66.7L98.1,66.7z
		 M98.1,75.1c-0.7,0-1.3-0.3-1.8-0.8c-0.5-0.5-0.7-1.2-0.7-2.1c0-0.9,0.3-1.6,0.7-2.2c0.5-0.5,1.1-0.8,1.8-0.8
		c0.7,0,1.3,0.3,1.8,0.8c0.5,0.5,0.7,1.3,0.7,2.2c0,0.9-0.3,1.6-0.7,2.1C99.4,74.8,98.8,75.1,98.1,75.1L98.1,75.1z"/>
	<path fill-rule="evenodd" clip-rule="evenodd" fill="#F5F5F5" d="M120.4,71.3c0-1.4-0.4-2.5-1.1-3.3c-0.8-0.8-1.8-1.2-3.2-1.3
		c-0.7,0-1.3,0.1-1.8,0.4c-0.5,0.3-1,0.6-1.3,1.1c-0.4-0.5-0.8-0.8-1.3-1.1c-0.5-0.3-1.1-0.4-1.7-0.4c-0.6,0-1.1,0.1-1.5,0.3
		c-0.4,0.2-0.8,0.5-1.1,0.9v-1h-2.5v10.3h2.7v-6c0-0.6,0.2-1.1,0.6-1.5c0.4-0.4,0.8-0.6,1.4-0.6c0.6,0,1,0.1,1.3,0.4
		c0.3,0.2,0.5,0.5,0.5,0.8c0.1,0.3,0.1,0.6,0.1,0.8v6h2.7v-6c0-0.6,0.2-1.1,0.6-1.5c0.4-0.4,0.8-0.6,1.4-0.6c0.6,0,1,0.1,1.3,0.4
		c0.3,0.2,0.5,0.5,0.5,0.8c0.1,0.3,0.1,0.6,0.1,0.8v6h2.6V71.3L120.4,71.3z"/>
	<path fill-rule="evenodd" clip-rule="evenodd" fill="#F5F5F5" d="M132.2,73.2c0.1-1.4-0.1-2.5-0.5-3.5c-0.4-1-1.1-1.7-1.9-2.2
		c-0.8-0.5-1.7-0.8-2.8-0.8c-1,0-1.9,0.3-2.7,0.7c-0.8,0.5-1.4,1.1-1.9,1.9c-0.5,0.8-0.7,1.7-0.7,2.7c0,1,0.3,1.9,0.7,2.7
		c0.5,0.8,1.1,1.4,1.9,1.9c0.8,0.5,1.7,0.7,2.7,0.7c1.3,0,2.4-0.3,3.2-1c0.9-0.6,1.4-1.5,1.8-2.5h-2.8c-0.2,0.4-0.5,0.7-0.9,0.9
		c-0.4,0.2-0.8,0.3-1.3,0.3c-0.6,0-1.2-0.2-1.6-0.5c-0.5-0.4-0.8-0.9-1-1.5H132.2L132.2,73.2z M124.4,71c0.2-0.6,0.5-1.1,1-1.4
		c0.4-0.3,1-0.5,1.6-0.5c0.6,0,1.2,0.2,1.6,0.5c0.5,0.3,0.8,0.8,0.9,1.4H124.4L124.4,71z"/>
	<path fill-rule="evenodd" clip-rule="evenodd" fill="#F5F5F5" d="M139.4,66.8c-0.6-0.1-1.2-0.1-1.8,0.1c-0.6,0.2-1.1,0.6-1.5,1.1
		v-1h-2.5v10.3h2.6v-5c0-0.4,0-0.8,0.1-1.2c0.1-0.4,0.3-0.7,0.5-1c0.3-0.3,0.7-0.5,1.1-0.6c0.4-0.1,0.9-0.1,1.4,0V66.8L139.4,66.8z"
		/>
	<path fill="#F5F5F5" d="M149.1,74c0-1.1-0.4-1.8-1.2-2.3c-0.8-0.4-1.9-0.7-3.2-0.9c-0.6-0.1-1.1-0.2-1.5-0.3
		c-0.4-0.1-0.5-0.3-0.5-0.6c0-0.2,0.1-0.4,0.4-0.6c0.3-0.2,0.7-0.3,1.3-0.3c0.5,0,0.9,0.1,1.2,0.2c0.3,0.2,0.5,0.4,0.6,0.6h2.7
		c-0.2-1-0.7-1.8-1.5-2.3c-0.8-0.6-1.8-0.9-3-0.9c-1,0-1.8,0.2-2.5,0.5c-0.6,0.3-1.1,0.7-1.5,1.2c-0.3,0.5-0.5,1-0.5,1.6
		c0,0.8,0.3,1.3,0.7,1.8c0.5,0.4,1,0.7,1.7,0.9c0.7,0.2,1.3,0.3,1.9,0.4c0.9,0.1,1.5,0.3,1.8,0.4c0.3,0.2,0.4,0.4,0.4,0.7
		c0,0.3-0.2,0.5-0.5,0.7c-0.3,0.2-0.8,0.2-1.3,0.2c-0.4,0-0.8-0.1-1.3-0.3c-0.4-0.2-0.7-0.5-0.9-0.9h-2.7c0.2,1.1,0.7,2,1.6,2.6
		c0.9,0.6,2,1,3.3,1c1.3,0,2.4-0.3,3.2-1C148.7,75.9,149.1,75.1,149.1,74L149.1,74z"/>
	<polygon fill="#F5F5F5" points="153.1,74.5 150.3,74.5 150.3,77.3 153.1,77.3 153.1,74.5 	"/>
	<path fill-rule="evenodd" clip-rule="evenodd" fill="#F5F5F5" d="M176.3,71.3c0-1.4-0.4-2.5-1.1-3.3c-0.8-0.8-1.8-1.2-3.2-1.3
		c-0.7,0-1.3,0.1-1.8,0.4c-0.5,0.3-1,0.6-1.3,1.1c-0.4-0.5-0.8-0.8-1.3-1.1c-0.5-0.3-1.1-0.4-1.7-0.4c-0.6,0-1.1,0.1-1.5,0.3
		c-0.4,0.2-0.8,0.5-1.1,0.9v-1h-2.5v10.3h2.7v-6c0-0.6,0.2-1.1,0.6-1.5c0.4-0.4,0.8-0.6,1.4-0.6c0.6,0,1,0.1,1.3,0.4
		c0.3,0.2,0.5,0.5,0.5,0.8c0.1,0.3,0.1,0.6,0.1,0.8v6h2.7v-6c0-0.6,0.2-1.1,0.6-1.5c0.4-0.4,0.8-0.6,1.4-0.6c0.6,0,1,0.1,1.3,0.4
		c0.3,0.2,0.5,0.5,0.5,0.8c0.1,0.3,0.1,0.6,0.1,0.8v6h2.6V71.3L176.3,71.3z"/>
	<path fill-rule="evenodd" clip-rule="evenodd" fill="#F5F5F5" d="M182.8,66.7c-1,0-1.8,0.2-2.6,0.7c-0.8,0.5-1.4,1.1-1.9,1.9
		c-0.5,0.8-0.7,1.7-0.7,2.8c0,1,0.2,2,0.7,2.8c0.5,0.8,1.1,1.4,1.9,1.9c0.8,0.5,1.6,0.7,2.6,0.7c1,0,1.8-0.2,2.6-0.7
		c0.8-0.5,1.4-1.1,1.9-1.9c0.5-0.8,0.7-1.7,0.7-2.8c0-1-0.2-2-0.7-2.8c-0.5-0.8-1.1-1.5-1.9-1.9C184.6,67,183.8,66.7,182.8,66.7
		L182.8,66.7z M182.8,75.1c-0.7,0-1.3-0.3-1.8-0.8s-0.7-1.2-0.7-2.1c0-0.9,0.3-1.6,0.7-2.2c0.5-0.5,1.1-0.8,1.8-0.8
		c0.7,0,1.3,0.3,1.8,0.8c0.5,0.5,0.7,1.3,0.7,2.2c0,0.9-0.3,1.6-0.7,2.1C184.1,74.8,183.5,75.1,182.8,75.1L182.8,75.1z"/>
	<path fill-rule="evenodd" clip-rule="evenodd" fill="#F5F5F5" d="M195.2,66.8c-0.6-0.1-1.2-0.1-1.8,0.1c-0.6,0.2-1.1,0.6-1.5,1.1
		v-1h-2.5v10.3h2.6v-5c0-0.4,0-0.8,0.1-1.2c0.1-0.4,0.3-0.7,0.5-1c0.3-0.3,0.7-0.5,1.1-0.6c0.4-0.1,0.9-0.1,1.4,0V66.8L195.2,66.8z"
		/>
	<path fill-rule="evenodd" clip-rule="evenodd" fill="#F5F5F5" d="M206,73.2c0.1-1.4-0.1-2.5-0.5-3.5c-0.4-1-1.1-1.7-1.9-2.2
		c-0.8-0.5-1.7-0.8-2.8-0.8c-1,0-1.9,0.3-2.7,0.7c-0.8,0.5-1.4,1.1-1.9,1.9c-0.5,0.8-0.7,1.7-0.7,2.7c0,1,0.3,1.9,0.7,2.7
		s1.1,1.4,1.9,1.9c0.8,0.5,1.7,0.7,2.7,0.7c1.3,0,2.4-0.3,3.2-1c0.9-0.6,1.4-1.5,1.8-2.5h-2.8c-0.2,0.4-0.5,0.7-0.9,0.9
		c-0.4,0.2-0.8,0.3-1.3,0.3c-0.6,0-1.2-0.2-1.6-0.5c-0.5-0.4-0.8-0.9-0.9-1.5H206L206,73.2z M198.2,71c0.2-0.6,0.5-1.1,1-1.4
		c0.4-0.3,1-0.5,1.6-0.5c0.6,0,1.2,0.2,1.6,0.5c0.5,0.3,0.8,0.8,0.9,1.4H198.2L198.2,71z"/>
	<path fill-rule="evenodd" clip-rule="evenodd" fill="#F5F5F5" d="M217.7,66.7c-1,0-1.8,0.2-2.6,0.7c-0.8,0.5-1.4,1.1-1.9,1.9
		c-0.5,0.8-0.7,1.7-0.7,2.8c0,1,0.2,2,0.7,2.8c0.5,0.8,1.1,1.4,1.9,1.9c0.8,0.5,1.6,0.7,2.6,0.7c1,0,1.8-0.2,2.6-0.7
		c0.8-0.5,1.4-1.1,1.9-1.9c0.5-0.8,0.7-1.7,0.7-2.8c0-1-0.2-2-0.7-2.8c-0.5-0.8-1.1-1.5-1.9-1.9C219.6,67,218.7,66.7,217.7,66.7
		L217.7,66.7z M217.7,75.1c-0.7,0-1.3-0.3-1.8-0.8c-0.5-0.5-0.7-1.2-0.7-2.1c0-0.9,0.3-1.6,0.7-2.2c0.5-0.5,1.1-0.8,1.8-0.8
		c0.7,0,1.3,0.3,1.8,0.8c0.5,0.5,0.7,1.3,0.7,2.2c0,0.9-0.3,1.6-0.7,2.1C219,74.8,218.4,75.1,217.7,75.1L217.7,75.1z"/>
	<path fill="#F5F5F5" d="M227.1,67c0-0.7,0.2-1.2,0.5-1.5c0.3-0.3,0.8-0.4,1.4-0.3v-2.5c-1-0.1-1.8,0-2.5,0.4
		c-0.7,0.4-1.2,0.9-1.5,1.6c-0.4,0.7-0.5,1.5-0.6,2.4h-1.2v2.3h1.2v7.9h2.6v-7.9h1.9V67H227.1L227.1,67z"/>
	<path fill="#F5F5F5" d="M235.3,74.9c-0.7,0-1.2-0.1-1.5-0.4c-0.3-0.3-0.5-0.8-0.5-1.5v-3.6h1.9V67h-1.9v-2.6h-2.6V67h-1.2v2.3h1.2
		v3.6c0,1.4,0.4,2.5,1.2,3.3c0.8,0.8,1.9,1.1,3.4,1V74.9L235.3,74.9z"/>
	<path fill-rule="evenodd" clip-rule="evenodd" fill="#F5F5F5" d="M246.4,73.2c0.1-1.4-0.1-2.5-0.5-3.5c-0.4-1-1.1-1.7-1.9-2.2
		c-0.8-0.5-1.7-0.8-2.8-0.8c-1,0-1.9,0.3-2.7,0.7c-0.8,0.5-1.4,1.1-1.9,1.9c-0.5,0.8-0.7,1.7-0.7,2.7c0,1,0.3,1.9,0.7,2.7
		c0.5,0.8,1.1,1.4,1.9,1.9c0.8,0.5,1.7,0.7,2.7,0.7c1.3,0,2.4-0.3,3.2-1c0.9-0.6,1.4-1.5,1.8-2.5h-2.8c-0.2,0.4-0.5,0.7-0.9,0.9
		c-0.4,0.2-0.8,0.3-1.3,0.3c-0.6,0-1.2-0.2-1.6-0.5c-0.5-0.4-0.8-0.9-1-1.5H246.4L246.4,73.2z M238.7,71c0.2-0.6,0.5-1.1,1-1.4
		c0.4-0.3,1-0.5,1.6-0.5c0.6,0,1.2,0.2,1.6,0.5c0.5,0.3,0.8,0.8,0.9,1.4H238.7L238.7,71z"/>
	<path fill-rule="evenodd" clip-rule="evenodd" fill="#F5F5F5" d="M257.1,71.3c0-1.4-0.4-2.5-1.1-3.3c-0.7-0.8-1.7-1.2-2.9-1.2
		c-0.5,0-1,0.1-1.5,0.3c-0.4,0.2-0.8,0.5-1.2,0.9v-1h-2.5v10.3h2.6v-6c0-0.6,0.2-1.1,0.6-1.5c0.4-0.4,0.8-0.6,1.4-0.6
		c0.6,0,1,0.1,1.3,0.4c0.3,0.2,0.5,0.5,0.5,0.8c0.1,0.3,0.1,0.6,0.1,0.8v6h2.6V71.3L257.1,71.3z"/>
	<polygon fill="#F5F5F5" points="261.6,74.5 258.7,74.5 258.7,77.3 261.6,77.3 261.6,74.5 	"/>
</g>
</svg>
