<?xml version="1.0" encoding="utf-8"?>
<!-- Generator: Adobe Illustrator 19.1.0, SVG Export Plug-In . SVG Version: 6.00 Build 0)  -->
<svg version="1.1" id="Layer_1" xmlns="http://www.w3.org/2000/svg" xmlns:xlink="http://www.w3.org/1999/xlink" x="0px" y="0px"
	 viewBox="204.1 31 631.1 467.1" style="enable-background:new 204.1 31 631.1 467.1;" xml:space="preserve">
<style type="text/css">
	.st0{fill:none;stroke:#AE4E9D;stroke-width:10;stroke-miterlimit:10;}
	.st1{fill:none;stroke:#E82336;stroke-width:10;stroke-miterlimit:10;}
	.st2{fill:none;stroke:#6E459B;stroke-width:10;stroke-miterlimit:10;}
	.st3{fill:none;stroke:#949CA1;stroke-width:5;stroke-miterlimit:10;}
	.st4{fill:#8EC640;}
	.st5{fill:none;stroke:#8EC640;stroke-width:10;stroke-miterlimit:10;}
	.st6{fill:none;stroke:#3BBEB3;stroke-width:10;stroke-miterlimit:10;}
	.st7{fill:none;stroke:#F5951F;stroke-width:10;stroke-miterlimit:10;}
	.st8{fill:none;stroke:#29AAE2;stroke-width:10;stroke-miterlimit:10;}
	.st9{fill:#949CA1;}
</style>
<line class="st0" x1="380.5" y1="170.7" x2="450.3" y2="489.6"/>
<line class="st1" x1="659.9" y1="466.1" x2="732.7" y2="170.7"/>
<line class="st2" x1="313.2" y1="415.9" x2="695" y2="170.7"/>
<g>
	<path class="st3" d="M436.2,233.9c-15.5,0-28,27.3-28,42.8c0,15.5,12.6,28,28,28s28-12.6,28-28
		C464.2,261.2,451.7,233.9,436.2,233.9z"/>
	<g>
		<polygon class="st4" points="425.3,280.8 421.1,280.8 421.1,264.6 425.3,264.6 		"/>
		<polygon class="st4" points="438.4,280.8 434,280.8 427.8,264.6 432.2,264.6 436.2,276.7 440.3,264.6 444.6,264.6 		"/>
		<polygon class="st4" points="451.2,280.8 447.1,280.8 447.1,264.6 451.2,264.6 		"/>
		<path class="st4" d="M426.8,259.9c0-1.1,0.9-2,2-2s2,0.9,2,2s-0.9,2-2,2C427.8,261.9,426.8,261,426.8,259.9L426.8,259.9z"/>
		<path class="st4" d="M421.1,259.9c0-1.1,0.9-2,2-2s2,0.9,2,2s-0.9,2-2,2S421.1,261,421.1,259.9L421.1,259.9z"/>
		<path class="st4" d="M441.1,259.9c0-1.1,0.9-2,2-2s2,0.9,2,2s-0.9,2-2,2C442.1,261.9,441.1,261,441.1,259.9L441.1,259.9z"/>
		<path class="st4" d="M447.1,259.9c0-1.1,0.9-2,2-2s2,0.9,2,2s-0.9,2-2,2S447.1,261,447.1,259.9L447.1,259.9z"/>
	</g>
</g>
<line class="st5" x1="387.7" y1="466.1" x2="510.5" y2="170.7"/>
<line class="st6" x1="323.5" y1="425.4" x2="799.2" y2="356.5"/>
<line class="st6" x1="222" y1="244.8" x2="339.1" y2="176.2"/>
<line class="st1" x1="240.7" y1="325.7" x2="288.1" y2="173.1"/>
<line class="st7" x1="362.3" y1="458.4" x2="222" y2="176.2"/>
<line class="st2" x1="820.1" y1="308.1" x2="809.7" y2="207.6"/>
<line class="st8" x1="533.5" y1="170.7" x2="475.8" y2="496.4"/>
<line class="st1" x1="205.4" y1="243.6" x2="765.8" y2="391.9"/>
<line class="st8" x1="246" y1="170.7" x2="640.8" y2="475.7"/>
<line class="st5" x1="264.4" y1="355.5" x2="834.1" y2="223.1"/>
<line class="st6" x1="601.3" y1="168.5" x2="680.4" y2="449.2"/>
<line class="st0" x1="651.2" y1="168.5" x2="533.5" y2="496.4"/>
<line class="st7" x1="425.8" y1="483.4" x2="826.2" y2="285"/>
<g>
	<path class="st4" d="M335.1,152.7h-21.5v-49.2c0-1.2-0.1-2.7-0.5-4.5c-0.3-1.8-1.1-3.5-2.2-5.3s-2.7-3.3-4.7-4.5s-4.9-1.8-8.5-1.8
		c-4.7,0-8.7,1.5-11.8,4.5c-3.1,3-4.6,6.8-4.6,11.7v49.2h-21.5v-49.2c0-1.2-0.1-2.7-0.5-4.5c-0.3-1.8-0.9-3.5-2-5.3
		s-2.6-3.3-4.6-4.5s-4.9-1.8-8.5-1.8c-4.9,0-8.8,1.5-11.9,4.5c-3,3-4.5,6.8-4.5,11.7V153h-21.5v-48.8c0-5.3,0.9-10.3,2.7-14.9
		s4.3-8.5,7.6-11.9s7.3-6,11.9-8c4.7-1.9,9.9-2.8,15.7-2.8s11,1.1,15.4,3.3c4.5,2.2,8.3,5,11.4,8.8c3.1-3.7,7-6.6,11.7-8.8
		c4.6-2.2,9.6-3.3,15.2-3.3c5.8,0,11.1,0.9,15.9,2.8c4.6,1.9,8.5,4.5,11.8,7.7c3.3,3.4,5.7,7.3,7.3,11.9c1.6,4.6,2.6,9.6,2.6,15.2
		L335.1,152.7L335.1,152.7z"/>
	<path class="st4" d="M386.4,134.8c2.8,0,5.6-0.5,8-1.8c2.6-1.1,4.7-2.8,6.6-4.9c1.9-2.2,3.4-4.6,4.5-7.6s1.6-6.2,1.6-9.8
		c0-3.7-0.5-6.9-1.6-10s-2.6-5.7-4.5-7.9c-1.9-2.2-4.2-3.9-6.6-5c-2.6-1.2-5.1-1.8-8-1.8c-2.8,0-5.6,0.5-8.1,1.8
		c-2.6,1.2-4.7,2.8-6.6,5s-3.4,4.7-4.5,7.9s-1.6,6.4-1.6,10c0,3.7,0.5,6.9,1.6,9.8c1.1,3,2.6,5.4,4.5,7.6s4.1,3.8,6.6,4.9
		C380.9,134.3,383.6,134.8,386.4,134.8L386.4,134.8z M386.4,66.2c5.8,0,11.4,1.1,16.5,3.4c5.1,2.2,9.6,5.3,13.6,9.4
		c3.9,3.9,6.9,8.7,9.2,14.1c2.2,5.4,3.4,11.2,3.4,17.6s-1.1,12.2-3.4,17.5s-5.3,10-9.2,14c-3.9,3.9-8.4,7-13.6,9.2
		c-5.1,2.3-10.6,3.4-16.5,3.4c-5.8,0-11.4-1.1-16.5-3.4c-5.1-2.2-9.6-5.3-13.4-9.2c-3.8-3.9-6.9-8.5-9.1-14
		c-2.3-5.3-3.4-11.2-3.4-17.5c0-6.4,1.1-12.2,3.4-17.6c2.2-5.4,5.3-10,9.1-14.1c3.8-3.9,8.3-7,13.4-9.4
		C375.1,67.3,380.5,66.2,386.4,66.2L386.4,66.2z"/>
	<path class="st4" d="M504.6,110.8c0-3.5-0.5-6.6-1.8-9.6c-1.1-3-2.7-5.6-4.7-7.7s-4.3-3.9-6.9-5c-2.6-1.2-5.4-1.8-8.4-1.8
		s-5.7,0.7-8.4,1.9c-2.6,1.2-4.9,3-6.9,5.1c-2,2.2-3.5,4.7-4.7,7.7c-1.1,3-1.8,6.1-1.8,9.5c0,3.3,0.5,6.4,1.8,9.2
		c1.1,2.8,2.7,5.4,4.7,7.6s4.3,3.8,6.9,5s5.4,1.9,8.4,1.9s5.7-0.5,8.4-1.8c2.6-1.2,4.9-2.8,6.9-5s3.5-4.6,4.7-7.6
		C504.1,117.3,504.6,114.2,504.6,110.8L504.6,110.8z M526.2,110.6c0,6.1-1.1,11.8-3.3,17.2c-2.2,5.4-5.1,10-8.9,14
		c-3.8,3.9-8.4,7.2-13.7,9.5s-11.1,3.4-17.5,3.4s-12.3-1.1-17.6-3.4c-5.3-2.3-9.9-5.4-13.7-9.4c-3.8-3.9-6.8-8.7-8.9-14
		s-3.3-11.1-3.3-17.2V31h21.5l0.1,45.4c3.1-3.4,6.8-6,11-7.5c4.2-1.6,8.7-2.4,13.6-2.4c5.6,0,10.8,1.1,15.7,3.4s9.2,5.4,12.7,9.5
		c3.7,4.1,6.5,8.8,8.5,14.1C525.1,98.8,526.2,104.5,526.2,110.6L526.2,110.6z"/>
	<path class="st4" d="M747.6,152.4c-6.2,0.7-11.7,0.3-16.4-1.1s-8.7-3.7-11.8-6.9c-3.1-3.1-5.6-7-7.2-11.7
		c-1.6-4.6-2.4-9.9-2.4-15.6V47h21.5v21.4h15.2v19.1h-15.2v29.8c0,5.8,1.4,10,4.1,12.5c2.7,2.4,6.8,3.4,12.2,3.1L747.6,152.4
		L747.6,152.4z"/>
	<path class="st4" d="M833.9,156.1c0,5.7-0.9,10.8-2.7,15.4s-4.3,8.7-7.6,11.9c-3.3,3.3-7.2,5.8-11.8,7.7c-4.6,1.8-9.8,2.7-15.3,2.7
		c-4.6,0-8.9-0.7-13.1-2.2c-4.2-1.4-7.9-3.4-11-6.1c-3.3-2.6-6-5.7-8.1-9.4c-2.2-3.7-3.7-7.6-4.5-11.9h22.4c0.7,3.1,2.3,5.6,4.9,7
		c2.6,1.5,5.7,2.3,9.4,2.3c3,0,5.4-0.4,7.5-1.4c2-0.9,3.7-2.2,4.9-3.8c1.2-1.6,2.2-3.4,2.7-5.3s0.8-3.8,0.8-5.8v-9.8
		c-2.6,2.2-5.4,3.9-8.7,5c-3.3,1.2-6.8,1.8-10.6,1.8c-5.1,0-9.8-0.9-14.1-2.7c-4.2-1.8-7.9-4.3-10.8-7.6c-3-3.3-5.3-7-6.9-11.7
		c-1.6-4.5-2.4-9.6-2.4-15.2V67.8h21.5V117c0,1.2,0.1,2.7,0.5,4.6c0.3,1.9,1.1,3.7,2.2,5.4c1.1,1.8,2.7,3.4,4.7,4.6s4.9,1.9,8.4,1.9
		c4.9,0,8.8-1.5,11.9-4.6c3-3.1,4.5-7,4.5-11.9V67.8h21.5v88h-0.2V156.1z"/>
	<g>
		<polygon class="st9" points="560.5,152.7 538.9,152.7 538.9,68.4 560.5,68.4 		"/>
		<polygon class="st9" points="628.8,152.7 605.6,152.7 573.6,68.4 596.2,68.4 617.1,131.3 638.2,68.4 660.5,68.4 		"/>
		<polygon class="st9" points="695.2,152.7 673.5,152.7 673.5,68.4 695.2,68.4 		"/>
		<path class="st9" d="M568.6,43.7c0-5.8,4.7-10.6,10.6-10.6c5.8,0,10.6,4.7,10.6,10.6s-4.7,10.6-10.6,10.6
			C573.3,54.4,568.6,49.7,568.6,43.7L568.6,43.7z"/>
		<path class="st9" d="M538.9,43.7c0-5.8,4.7-10.6,10.6-10.6s10.6,4.7,10.6,10.6s-4.7,10.6-10.6,10.6
			C543.6,54.4,538.9,49.7,538.9,43.7L538.9,43.7z"/>
		<path class="st9" d="M642.7,43.7c0-5.8,4.7-10.6,10.6-10.6s10.6,4.7,10.6,10.6s-4.7,10.6-10.6,10.6
			C647.6,54.4,642.7,49.7,642.7,43.7L642.7,43.7z"/>
		<path class="st9" d="M673.9,43.7c0-5.8,4.7-10.6,10.6-10.6c5.8,0,10.6,4.7,10.6,10.6s-4.7,10.6-10.6,10.6
			C678.6,54.4,673.9,49.7,673.9,43.7L673.9,43.7z"/>
	</g>
</g>
</svg>
